<?xml version="1.0" standalone="no"?>
<!DOCTYPE svg PUBLIC "-//W3C//DTD SVG 20010904//EN"
 "http://www.w3.org/TR/2001/REC-SVG-20010904/DTD/svg10.dtd">
<svg version="1.0" xmlns="http://www.w3.org/2000/svg"
 width="16.000000pt" height="16.000000pt" viewBox="0 0 16.000000 16.000000"
 preserveAspectRatio="xMidYMid meet">
<metadata>
Created by potrace 1.11, written by Peter Selinger 2001-2013
</metadata>
<g transform="translate(0.000000,16.000000) scale(0.004188,-0.004188)"
fill="#000000" stroke="none">
<path d="M2029 3533 c-1 -4 -1 -11 0 -15 0 -4 -7 -26 -15 -50 -9 -24 -17 -81
-18 -130 -2 -49 -6 -91 -9 -95 -4 -3 -3 -11 2 -17 4 -6 11 -28 14 -48 5 -36 4
-38 -23 -38 -21 0 -29 6 -34 25 -7 27 -26 35 -26 11 0 -16 -37 -32 -48 -22 -3
4 4 9 16 13 22 5 25 30 3 26 -6 -2 -11 2 -11 7 0 6 -7 10 -15 10 -17 0 -20
-16 -5 -25 12 -7 4 -25 -12 -25 -5 0 -8 6 -5 14 9 22 -3 27 -26 11 -14 -10
-25 -11 -38 -4 -14 7 -26 5 -44 -7 -15 -10 -25 -12 -25 -5 0 6 4 11 9 11 5 0
11 9 14 19 3 14 -2 21 -20 26 -16 4 -23 11 -19 20 3 8 1 17 -4 20 -4 3 -7 -7
-5 -21 1 -14 9 -30 16 -35 11 -7 10 -11 -5 -22 -12 -8 -17 -21 -13 -30 3 -9 1
-18 -6 -21 -7 -2 -1 -4 12 -3 13 1 26 -3 28 -10 6 -16 -57 -27 -111 -19 -27 4
-47 3 -51 -4 -3 -5 -1 -10 5 -10 6 0 19 -7 27 -16 9 -9 26 -14 40 -11 16 3 23
0 24 -12 0 -11 3 -8 9 7 10 22 44 30 55 12 3 -5 11 -10 16 -10 6 0 7 5 4 10
-3 6 1 10 9 10 9 0 15 -9 14 -22 -2 -40 2 -58 10 -58 5 0 7 15 4 33 -4 31 -4
31 13 12 16 -20 16 -20 12 3 -6 28 14 29 31 2 7 -11 8 -20 3 -20 -14 0 -41
-29 -41 -43 0 -7 5 -4 11 6 14 24 49 22 49 -3 0 -13 6 -20 18 -19 11 0 12 2 4
6 -10 4 -10 8 -1 19 9 11 8 15 -5 20 -22 9 -20 24 3 24 22 0 35 -28 25 -55 -5
-13 -4 -16 5 -10 8 4 11 21 9 41 -4 36 17 49 25 17 4 -17 5 -17 6 0 1 24 44
19 49 -5 2 -11 -1 -16 -10 -13 -14 5 -34 -9 -58 -39 -14 -18 -14 -19 8 -7 12
6 27 9 32 6 6 -3 10 0 10 7 0 9 3 9 8 2 14 -20 45 -25 68 -9 21 14 24 14 24 0
0 -8 5 -15 10 -15 17 0 11 -27 -7 -35 -17 -7 -16 -8 2 -15 20 -7 45 9 45 30 0
6 5 8 11 5 6 -4 9 -1 7 7 -2 7 2 14 7 15 6 1 9 -5 7 -14 -2 -10 2 -14 10 -11
7 3 19 -1 26 -8 7 -8 8 -14 2 -14 -5 0 -10 -10 -10 -22 0 -12 3 -18 7 -15 3 4
16 -2 29 -14 l22 -20 13 29 c12 28 13 29 40 13 15 -8 25 -21 22 -28 -6 -16
-24 -17 -21 -2 2 6 -3 14 -11 17 -10 3 -12 0 -8 -12 4 -10 1 -16 -6 -16 -23 0
-51 -26 -42 -40 6 -10 10 -9 17 4 10 18 63 22 73 6 3 -5 12 -10 18 -10 8 0 8
3 2 8 -18 13 -15 30 5 35 18 5 20 0 19 -41 -1 -26 -3 -39 -6 -29 -2 9 -9 17
-15 17 -5 0 -8 -7 -4 -15 3 -8 2 -23 -2 -32 -5 -14 -8 -9 -12 17 -4 28 -10 36
-30 38 -23 3 -23 2 -8 -10 15 -11 24 -34 27 -70 2 -15 31 -8 31 8 0 8 5 12 10
9 6 -4 17 -1 25 5 11 9 15 9 15 1 0 -6 -11 -17 -25 -23 -14 -6 -25 -17 -25
-24 0 -15 32 -12 38 4 2 7 11 12 19 12 9 0 13 6 9 15 -3 8 -1 15 4 15 13 0 13
-47 0 -55 -5 -3 -10 -11 -10 -16 0 -6 4 -8 9 -4 5 3 12 1 16 -5 3 -5 -3 -10
-14 -10 -12 0 -21 -4 -21 -10 0 -5 7 -10 16 -10 13 0 15 -7 10 -31 -5 -27 -4
-29 10 -15 8 9 19 16 24 16 4 0 10 9 13 20 3 11 1 20 -4 20 -5 0 -9 4 -9 9 0
12 50 44 58 36 4 -3 0 -10 -8 -15 -11 -7 -12 -14 -2 -34 7 -17 8 -27 1 -32 -6
-4 -6 -11 2 -20 10 -12 8 -18 -7 -30 -18 -14 -18 -15 4 -4 12 6 22 17 22 25 0
9 6 12 15 9 19 -8 19 -19 1 -37 -8 -8 -11 -19 -6 -26 5 -9 12 -4 21 17 10 23
17 28 26 21 7 -6 17 -8 22 -4 7 3 8 0 5 -9 -3 -8 -11 -13 -17 -10 -7 2 -22
-13 -34 -34 -14 -23 -22 -31 -23 -19 0 9 -7 17 -16 17 -14 0 -14 -1 0 -16 18
-18 21 -45 5 -41 -6 1 -13 -8 -15 -20 -5 -29 19 -30 46 -3 24 24 28 49 5 30
-10 -8 -15 -9 -15 -2 0 6 8 16 18 21 12 8 13 10 3 11 -8 0 -11 3 -8 7 4 3 16
-3 26 -14 14 -14 16 -24 9 -37 -5 -9 -7 -24 -4 -32 3 -8 2 -12 -3 -9 -5 3 -12
1 -16 -5 -3 -6 3 -10 16 -10 19 0 20 -2 8 -17 -13 -17 -12 -17 14 0 20 13 27
14 27 4 0 -7 18 -23 40 -36 41 -23 49 -17 29 21 -9 17 -13 18 -20 7 -7 -11 -9
-10 -9 4 0 9 -7 17 -15 17 -12 0 -11 5 3 30 18 32 67 45 56 15 -4 -10 -13 -13
-26 -9 -15 5 -19 2 -16 -13 2 -12 14 -19 36 -21 33 -3 39 -11 23 -27 -6 -6 -3
-25 6 -48 12 -29 19 -36 34 -32 11 4 19 2 19 -3 0 -16 -41 -22 -47 -6 -8 23
-23 16 -23 -10 0 -31 20 -44 32 -22 5 9 16 16 24 16 11 0 8 -8 -11 -27 -32
-35 -32 -59 1 -76 l27 -14 -34 -8 c-23 -5 -28 -9 -16 -12 20 -5 22 -14 5 -32
-11 -11 -9 -13 10 -8 32 8 39 -16 13 -44 -13 -15 -21 -18 -21 -9 0 7 -3 11 -6
7 -4 -3 3 -18 15 -33 12 -15 19 -30 15 -33 -3 -3 -11 2 -18 11 -10 13 -15 15
-24 6 -7 -7 -12 -18 -12 -25 0 -20 45 -16 64 6 16 18 16 20 -6 35 l-22 16 33
0 c30 0 33 -2 29 -25 -3 -14 -1 -28 4 -31 5 -4 7 -17 3 -31 -3 -14 0 -32 7
-41 10 -12 10 -14 1 -8 -19 11 -16 -14 5 -37 16 -19 16 -20 -1 -14 -18 7 -18
-1 0 -51 3 -8 0 -10 -10 -6 -8 3 -18 1 -22 -5 -3 -6 1 -11 10 -11 13 0 13 -2
3 -14 -7 -7 -19 -11 -25 -9 -7 3 -13 0 -13 -6 0 -6 -5 -11 -11 -11 -5 0 -7 5
-3 12 4 7 3 8 -4 4 -16 -10 -3 -36 19 -36 12 0 19 -7 19 -18 0 -11 -7 -18 -20
-18 -11 0 -20 4 -20 8 0 4 -8 8 -17 8 -15 -1 -15 -3 5 -19 12 -11 22 -24 22
-30 0 -6 5 -11 10 -11 6 0 5 -8 -2 -19 -7 -11 -16 -17 -20 -14 -13 7 -38 -17
-38 -38 0 -20 -25 -49 -43 -49 -7 0 -6 4 3 10 8 5 11 12 7 17 -5 4 -12 1 -17
-7 -12 -20 6 -39 30 -33 12 3 20 0 20 -6 0 -7 5 -9 12 -5 8 5 9 2 5 -10 -4
-10 -7 -23 -7 -29 -1 -7 -8 1 -17 18 l-16 29 -15 -22 -14 -22 -25 20 c-14 11
-30 17 -36 13 -6 -4 -8 0 -4 10 3 10 2 17 -3 17 -6 0 -10 -10 -10 -21 0 -18
-3 -19 -15 -9 -8 6 -20 10 -27 7 -7 -3 -4 -6 7 -6 17 -1 17 -3 5 -11 -13 -8
-12 -10 3 -10 15 0 18 -7 17 -32 -3 -48 -1 -55 11 -35 6 9 14 15 18 13 4 -3
18 4 30 15 12 12 25 18 29 14 4 -4 1 -10 -5 -12 -8 -3 -11 -14 -7 -29 4 -15 2
-24 -5 -24 -6 0 -11 5 -11 10 0 6 -5 10 -11 10 -5 0 -7 -4 -4 -10 3 -5 0 -7
-8 -4 -8 3 -18 -6 -26 -22 -16 -35 -8 -41 18 -13 18 19 21 20 21 6 0 -10 -6
-20 -14 -23 -20 -8 -29 -34 -11 -34 8 0 15 7 15 15 0 8 9 19 20 25 22 12 27 1
8 -18 -10 -10 -10 -15 2 -22 13 -8 13 -11 1 -22 -10 -10 -12 -10 -7 0 14 24
-10 11 -42 -23 -19 -19 -31 -39 -27 -44 6 -11 -29 -33 -39 -24 -3 3 -6 -11 -6
-32 0 -33 -2 -36 -16 -25 -22 19 -14 63 14 75 23 10 30 25 12 25 -5 0 -10 7
-10 15 0 8 5 15 10 15 6 0 10 -5 10 -12 0 -6 3 -9 6 -5 14 13 -5 35 -25 30
-12 -3 -19 -9 -16 -13 3 -5 -4 -15 -16 -23 -13 -9 -16 -17 -10 -22 16 -10 13
-25 -4 -19 -8 3 -22 -1 -30 -10 -15 -15 -14 -16 9 -16 23 0 26 -4 26 -39 0
-22 -6 -44 -15 -51 -12 -10 -15 -9 -15 7 0 10 5 24 11 30 14 14 -3 25 -26 17
-13 -5 -14 -8 -3 -15 10 -7 11 -9 0 -9 -7 0 -10 -5 -7 -10 7 -12 -16 -80 -27
-80 -4 0 -8 5 -8 11 0 6 -7 9 -15 5 -9 -3 -15 0 -15 9 0 8 -7 15 -16 15 -13 0
-15 -7 -10 -30 5 -28 4 -30 -25 -30 -26 0 -30 3 -26 20 3 11 2 20 -1 20 -11
-1 -37 -24 -39 -35 -1 -6 -5 -18 -8 -27 -4 -11 -3 -18 4 -18 6 0 8 -6 5 -13
-3 -8 -16 -12 -34 -9 -26 4 -28 6 -19 29 13 34 12 35 -10 16 -13 -11 -17 -22
-12 -32 11 -21 3 -41 -15 -41 -8 0 -17 -7 -20 -15 -5 -12 -10 -13 -20 -4 -8 6
-14 8 -15 3 0 -5 -4 1 -10 14 -11 28 -29 21 -22 -8 4 -15 0 -20 -16 -20 -23 0
-29 -15 -8 -23 6 -3 2 -6 -10 -6 -13 -1 -23 3 -23 9 0 16 23 60 32 60 4 0 8 5
8 10 0 6 -11 3 -25 -6 -14 -9 -25 -23 -25 -30 0 -8 -5 -14 -11 -14 -6 0 -8 -8
-4 -19 5 -16 2 -18 -15 -14 -15 4 -19 2 -14 -10 3 -10 -3 -20 -16 -27 -20 -11
-21 -10 -15 12 4 12 14 32 21 43 18 25 18 45 0 45 -21 0 -48 -30 -42 -46 8
-20 -12 -27 -29 -10 -14 13 -13 17 7 36 18 17 20 22 8 33 -10 10 -12 9 -7 -5
4 -11 0 -19 -11 -22 -9 -3 -23 -15 -30 -26 -10 -17 -10 -20 3 -20 10 0 15 -10
15 -30 0 -16 -3 -30 -8 -30 -13 0 -39 35 -34 48 6 18 -5 15 -28 -8 -11 -11
-20 -27 -20 -35 0 -8 -5 -15 -11 -15 -5 0 -9 8 -7 18 1 9 -1 23 -5 30 -6 8 -1
12 17 12 14 0 26 4 26 9 0 14 -38 20 -45 7 -3 -8 -7 -8 -11 2 -3 6 -10 9 -15
6 -6 -3 -5 -11 2 -20 9 -11 8 -14 -9 -14 -11 0 -22 -7 -26 -15 -6 -17 9 -21
19 -5 10 16 25 12 25 -6 0 -10 -6 -14 -15 -11 -8 4 -17 2 -20 -3 -9 -15 -25
-12 -25 5 0 8 -7 15 -15 15 -8 0 -15 -4 -15 -10 0 -5 -5 -10 -10 -10 -7 0 -7
6 0 19 5 11 10 28 10 38 0 10 7 30 14 46 8 15 12 27 8 27 -9 0 -37 -43 -34
-52 1 -5 -2 -8 -8 -8 -5 0 -10 -5 -10 -11 0 -5 5 -7 10 -4 18 11 10 -15 -11
-38 l-22 -22 5 28 c6 30 -7 38 -15 8 -2 -10 -16 -20 -31 -23 -32 -6 -34 4 -3
17 12 6 24 21 25 34 2 15 0 21 -7 17 -21 -13 -11 5 17 30 l27 26 -33 -22 c-28
-19 -33 -28 -30 -52 4 -27 2 -29 -19 -25 -13 2 -26 0 -29 -4 -3 -5 -17 -8 -32
-8 -23 2 -24 2 -5 6 14 3 20 9 16 19 -5 13 -9 12 -31 -2 -22 -15 -24 -15 -19
-1 3 9 1 19 -5 23 -6 4 -8 3 -4 -4 3 -6 1 -14 -5 -18 -7 -4 -9 -3 -5 4 3 6 -2
18 -11 28 -17 17 -17 17 -1 11 10 -3 20 -2 23 3 4 6 -6 10 -21 10 -24 0 -26
-3 -20 -30 3 -17 1 -30 -4 -30 -10 0 -12 6 -12 40 0 38 2 41 22 35 24 -7 28
13 4 22 -8 3 -13 12 -10 20 3 8 1 11 -4 8 -6 -3 -13 1 -17 11 -4 10 0 20 10
26 19 10 23 38 6 38 -6 0 -9 -7 -5 -15 3 -9 0 -15 -8 -15 -22 0 -25 12 -9 36
9 14 13 28 9 31 -10 10 -23 -9 -31 -46 -5 -26 -4 -32 5 -26 10 6 12 0 6 -25
-8 -41 -13 -47 -28 -32 -8 8 -9 12 -1 12 15 0 4 37 -13 44 -8 3 -14 1 -14 -5
0 -6 -3 -8 -7 -6 -5 3 -14 -1 -21 -9 -15 -17 0 -19 29 -4 15 8 19 7 19 -5 0
-8 -5 -15 -10 -15 -11 0 -4 -11 33 -51 21 -23 21 -29 2 -29 -9 0 -18 7 -21 15
-4 8 -10 12 -15 9 -5 -3 -9 4 -9 16 0 19 -1 20 -16 6 -18 -19 -34 -21 -34 -5
0 8 -4 8 -13 1 -7 -6 -18 -7 -25 -3 -10 6 -9 11 3 21 12 10 19 10 27 2 16 -16
28 -15 28 3 0 8 -6 14 -12 13 -7 -2 -12 5 -10 15 2 10 -3 17 -13 17 -8 0 -15
5 -15 11 0 5 -5 7 -10 4 -16 -10 -50 5 -50 22 0 9 8 25 17 35 14 15 14 19 3
16 -10 -2 -14 3 -12 15 2 9 -2 17 -8 17 -5 0 -11 -6 -11 -12 -1 -7 -2 -17 -4
-23 -1 -5 -3 -25 -3 -44 -2 -28 -4 -31 -16 -22 -9 7 -17 8 -20 3 -3 -6 1 -12
9 -16 8 -3 15 -16 15 -28 -1 -20 -2 -21 -11 -5 -5 9 -16 17 -24 17 -18 0 -9
29 14 48 14 11 13 13 -7 18 -30 8 -28 22 3 19 14 -2 25 1 25 6 0 9 -7 11 -40
13 -17 1 -27 36 -11 36 19 0 12 17 -10 23 -14 4 -19 2 -16 -7 3 -8 -11 -22
-35 -34 -35 -20 -39 -20 -36 -4 2 9 13 18 25 20 22 3 38 38 22 48 -5 3 -9 2
-8 -3 4 -22 -3 -31 -21 -28 -11 2 -20 0 -20 -6 0 -5 -4 -8 -9 -7 -5 2 -16 -6
-24 -16 -9 -13 -16 -15 -21 -8 -4 6 4 21 18 33 14 12 23 25 21 29 -3 4 2 13
10 20 22 18 18 33 -4 20 -26 -14 -31 -13 -25 5 4 8 2 15 -3 15 -13 0 -14 -43
0 -52 9 -5 6 -14 -10 -30 -22 -21 -24 -21 -40 -5 -19 18 -11 36 9 19 10 -8 13
-1 13 34 0 34 5 47 23 59 12 9 22 24 22 33 -1 15 -2 15 -11 -1 -6 -9 -14 -15
-20 -12 -5 4 -9 -1 -9 -9 0 -9 -4 -16 -10 -16 -5 0 -10 -11 -10 -23 0 -13 -9
-32 -20 -42 -20 -18 -21 -18 -50 16 -19 22 -29 42 -26 57 4 24 -9 39 -19 22
-7 -12 -25 -4 -25 11 0 5 6 9 13 9 16 0 18 32 3 43 -8 5 -6 10 4 16 17 11 10
21 -17 25 -16 3 -19 11 -14 46 0 6 13 15 27 20 16 7 24 16 21 24 -3 8 5 26 19
41 25 27 33 52 12 39 -6 -4 -8 -3 -4 4 3 6 3 13 -2 16 -16 9 -33 -11 -35 -42
-1 -18 -6 -32 -10 -32 -5 0 -5 -9 -2 -20 5 -15 2 -20 -12 -20 -12 0 -14 3 -6
8 8 5 7 12 -4 27 -13 16 -15 17 -10 3 4 -10 2 -18 -3 -18 -6 0 -9 23 -6 54 3
44 1 53 -11 49 -8 -3 -17 -18 -20 -34 -3 -16 -12 -29 -20 -29 -10 0 -11 4 -3
19 12 23 13 44 2 37 -4 -2 -9 4 -9 15 -2 20 12 26 20 9 3 -6 4 -5 3 2 -1 6 5
28 15 47 16 34 15 67 -2 40 -4 -7 -5 -17 -3 -21 3 -4 -2 -8 -11 -8 -12 0 -15
-6 -10 -20 4 -14 2 -20 -9 -21 -36 -3 -40 -5 -44 -17 -2 -7 2 -10 12 -6 15 6
22 -15 17 -54 -3 -19 19 -43 31 -36 7 4 7 -2 2 -17 -4 -13 -8 -32 -8 -41 0
-21 -16 -25 -16 -5 0 8 -7 28 -16 46 -9 18 -14 41 -11 52 3 12 0 22 -9 26 -8
3 -14 12 -14 20 0 8 -5 11 -10 8 -6 -4 -10 -3 -9 2 4 24 -2 36 -12 26 -12 -12
-2 -83 12 -83 5 0 9 6 9 13 0 8 3 7 10 -3 9 -15 -7 -33 -22 -24 -4 3 -5 -1 -2
-9 3 -8 1 -18 -5 -22 -17 -10 -13 -21 7 -21 14 0 17 6 14 25 -5 24 -4 25 12 8
10 -10 15 -24 12 -32 -3 -8 -1 -15 5 -15 5 0 -2 -12 -16 -27 -14 -15 -25 -32
-25 -38 1 -5 9 0 19 13 19 21 38 31 27 13 -4 -5 0 -12 6 -15 9 -3 8 -8 -4 -16
-23 -14 -23 -28 -1 -26 21 1 31 -43 14 -54 -8 -4 -5 -14 9 -30 11 -13 18 -26
15 -29 -4 -3 -10 1 -15 9 -9 14 -15 6 -10 -15 1 -5 -4 -4 -11 3 -7 6 -17 12
-23 12 -5 0 -7 -3 -3 -6 3 -3 -3 -16 -14 -27 -11 -12 -15 -23 -10 -25 5 -2 7
-11 4 -20 -5 -14 -3 -14 9 1 13 17 15 17 27 3 11 -13 11 -16 1 -16 -8 0 -11
-3 -8 -6 4 -3 0 -20 -7 -37 -11 -27 -11 -35 2 -52 14 -19 14 -19 8 7 -10 39 2
70 23 59 9 -5 19 -9 22 -8 11 2 59 -46 54 -55 -9 -14 -24 -9 -18 7 4 8 1 15
-5 15 -6 0 -11 -6 -11 -12 0 -16 15 -40 24 -39 5 1 8 -5 5 -11 -1 -2 -3 -19
-4 -39 -3 -24 1 -36 9 -36 14 0 15 25 2 45 -4 7 -3 19 3 26 6 7 8 16 4 19 -3
4 0 7 8 7 11 0 11 2 -1 10 -8 5 -11 10 -6 10 5 0 3 7 -4 15 -22 26 -2 29 21 4
11 -13 18 -18 14 -12 -3 7 -2 13 3 13 12 0 25 -47 17 -60 -4 -6 1 -10 9 -10 9
0 25 -8 36 -17 15 -14 17 -20 7 -32 -9 -12 -9 -13 1 -7 6 4 12 3 12 -1 0 -12
-41 -35 -48 -27 -4 4 -1 9 6 11 10 4 10 8 1 19 -8 10 -8 14 0 14 19 0 12 17
-9 23 -14 3 -18 1 -13 -6 18 -29 4 -65 -20 -50 -5 3 -3 9 4 14 11 7 11 9 -2 9
-11 0 -16 -9 -16 -25 0 -17 5 -25 18 -25 12 0 17 -7 16 -20 -1 -11 -7 -18 -13
-16 -6 2 -17 -7 -25 -20 -7 -14 -23 -27 -36 -30 -27 -7 -56 13 -49 32 3 8 2
13 -2 11 -11 -3 -62 39 -62 52 0 6 -5 11 -11 11 -5 0 -7 5 -4 10 3 6 0 10 -7
10 -7 0 -26 12 -42 26 -24 21 -27 28 -15 35 11 8 10 9 -6 7 -13 -2 -20 2 -19
12 2 27 -35 20 -92 -16 -29 -19 -55 -34 -56 -33 -2 2 -13 -3 -25 -9 -22 -12
-21 -13 33 -90 60 -84 191 -222 211 -222 7 0 75 36 151 80 77 44 147 80 157
80 10 0 52 -20 94 -44 74 -42 147 -78 299 -147 40 -18 77 -40 82 -48 4 -9 14
-68 20 -131 7 -63 16 -121 20 -129 13 -24 34 78 34 167 1 45 5 81 9 79 5 -1 8
-6 8 -10 -2 -14 24 -35 36 -30 8 3 11 14 7 29 -4 15 -2 24 5 24 6 0 11 -4 11
-9 0 -5 12 -8 26 -8 17 0 22 3 16 9 -14 14 -3 38 14 31 8 -3 14 0 14 6 0 6 5
11 10 11 6 0 10 -9 10 -20 0 -13 -5 -18 -15 -14 -10 4 -15 0 -15 -15 0 -12 4
-21 10 -21 5 0 7 -8 3 -17 -4 -14 -3 -15 6 -7 12 11 19 32 21 69 1 18 2 17 15
-5 11 -19 14 -21 15 -7 0 9 5 17 11 17 5 0 8 -4 5 -9 -3 -5 1 -11 8 -14 8 -3
17 -1 20 6 3 8 5 8 5 -1 1 -16 -19 -37 -36 -38 -37 -3 -43 -5 -43 -14 0 -7 6
-7 19 0 29 15 34 13 27 -15 -5 -20 -3 -23 10 -18 9 3 14 13 11 25 -3 11 -1 17
7 16 6 -2 11 1 11 5 0 5 11 15 25 22 14 8 19 14 12 15 -7 0 -10 5 -7 10 4 6
15 8 26 5 11 -4 19 -2 19 4 0 6 7 11 16 11 8 0 12 5 9 10 -3 6 -1 10 6 10 7 0
10 -11 7 -30 -3 -17 -1 -30 4 -30 5 0 4 -8 -1 -19 -6 -10 -7 -21 -4 -25 3 -3
1 -6 -5 -6 -7 0 -12 5 -12 12 0 6 -6 3 -14 -8 -12 -15 -17 -17 -27 -6 -28 27
-39 8 -13 -24 10 -12 14 -13 11 -4 -3 11 4 15 30 16 25 0 32 -3 28 -14 -3 -7
-5 -20 -5 -28 0 -8 -7 -14 -15 -14 -13 0 -19 11 -17 31 1 3 -14 -1 -33 -10
-19 -8 -35 -22 -34 -31 0 -10 2 -11 6 -2 2 6 10 9 15 6 7 -4 8 -2 4 4 -5 8 -1
11 11 9 18 -2 23 -8 23 -27 0 -14 -104 -12 -118 2 -9 9 -12 9 -12 0 0 -7 -7
-12 -15 -12 -8 0 -15 9 -15 21 0 11 -5 17 -10 14 -6 -4 -7 -11 -4 -17 5 -7 -6
-9 -32 -6 -78 10 -107 -18 -129 -122 -4 -19 -12 -40 -17 -47 -6 -8 -3 -15 9
-21 34 -18 187 -34 292 -30 l104 3 37 140 c20 77 40 152 43 166 8 31 20 36
169 78 59 17 158 51 220 76 62 25 116 45 121 45 5 0 62 -42 126 -94 162 -129
151 -124 197 -96 95 58 264 213 264 242 0 7 -38 78 -85 158 -47 80 -85 148
-85 152 0 4 25 50 56 103 31 52 81 150 111 218 30 67 62 130 71 139 13 12 55
21 162 33 80 8 155 18 167 20 32 7 47 90 47 265 l1 144 -45 13 c-25 7 -54 15
-65 18 -76 16 -212 59 -223 69 -7 7 -30 71 -51 142 -21 71 -57 177 -80 237
-22 59 -41 112 -41 118 0 7 42 64 94 128 133 166 126 149 82 210 -21 28 -42
51 -47 51 -5 0 -9 5 -9 10 0 15 -42 70 -53 70 -12 0 -31 20 -46 49 -7 12 -15
20 -18 18 -2 -3 -14 4 -25 15 -16 16 -22 18 -29 7 -4 -7 -6 -16 -3 -20 2 -4 0
-10 -5 -14 -6 -3 -8 3 -6 14 5 28 -17 17 -45 -22 -27 -36 -40 -132 -13 -100 8
10 12 12 8 5 -4 -7 -2 -19 4 -26 9 -10 8 -15 -4 -20 -19 -7 -20 -26 0 -26 8 0
15 5 15 10 0 6 7 10 17 10 14 0 14 -2 -3 -21 -12 -14 -14 -19 -5 -17 8 2 19
-6 25 -18 6 -11 17 -19 24 -16 12 4 70 -37 71 -51 1 -5 -5 -5 -11 -1 -8 4 -10
3 -5 -2 5 -5 13 -9 19 -9 17 0 20 -45 3 -51 -8 -4 -13 -9 -10 -13 7 -12 -82
-94 -94 -87 -7 4 -9 1 -5 -8 8 -21 -22 -32 -41 -16 -8 7 -26 10 -40 8 -14 -3
-25 -1 -25 3 0 5 5 9 10 9 6 0 10 5 10 11 0 6 -8 10 -17 7 -10 -2 -28 7 -40
19 -12 13 -19 23 -15 23 18 1 32 18 26 33 -3 9 -10 14 -15 11 -5 -3 -9 0 -9 5
0 6 9 11 20 11 11 0 20 -4 20 -10 0 -5 9 -10 20 -10 11 0 20 7 20 15 0 8 5 15
10 15 6 0 10 4 10 9 0 5 -11 8 -24 5 -32 -6 -66 25 -55 51 14 35 10 39 -16 15
-22 -21 -25 -21 -25 -6 0 14 -6 17 -25 14 -14 -3 -25 -2 -25 2 0 10 -31 18
-48 13 -18 -7 -4 -23 19 -23 11 0 19 -7 19 -17 0 -16 -2 -16 -10 -3 -9 13 -12
13 -21 -2 -5 -10 -19 -18 -29 -18 -23 0 -26 15 -5 24 20 7 8 36 -16 36 -10 0
-19 5 -19 10 0 6 5 10 12 10 6 0 9 3 6 6 -4 3 -16 0 -28 -6 l-22 -12 28 -19
c16 -10 27 -19 24 -20 -54 -9 -62 -9 -58 3 3 7 -1 19 -9 26 -10 11 -17 9 -35
-8 -19 -17 -24 -18 -33 -7 -5 8 -16 12 -22 10 -22 -8 -14 7 10 17 17 8 15 9
-14 4 -25 -4 -39 -1 -48 10 -8 9 -21 16 -30 16 -9 0 -21 4 -27 10 -5 5 -27 16
-49 25 -37 14 -38 15 -9 12 26 -3 30 0 26 15 -2 10 -9 18 -14 18 -5 0 -6 -4
-3 -10 8 -13 -14 -13 -56 1 -38 13 -72 39 -51 39 7 0 11 4 8 9 -4 5 0 11 6 14
7 3 3 4 -9 4 -12 -1 -24 -9 -27 -20 -2 -10 -10 -16 -15 -12 -6 3 -9 11 -6 16
4 5 2 9 -3 9 -6 0 -8 9 -5 21 4 14 9 17 16 10 7 -7 15 -7 24 0 8 7 13 7 13 2
0 -6 25 -9 58 -8 76 4 74 3 66 17 -5 7 -3 8 7 2 21 -13 33 -11 46 6 11 13 14
12 28 -7 9 -13 21 -23 27 -23 6 0 1 11 -12 25 -13 14 -32 25 -42 25 -10 0 -18
5 -18 10 0 6 -12 10 -26 10 -14 0 -22 4 -19 10 3 5 -6 12 -21 16 -45 11 -115
55 -123 78 -5 11 -14 78 -21 149 -7 70 -17 130 -21 133 -5 3 -10 2 -10 -3z
m-264 -363 c3 -5 1 -10 -4 -10 -6 0 -11 5 -11 10 0 6 2 10 4 10 3 0 8 -4 11
-10z m89 -34 c19 -19 32 -37 29 -40 -7 -6 -36 5 -45 18 -6 8 -11 6 -17 -3 -8
-12 -12 -12 -25 -2 -11 9 -16 10 -16 2 0 -6 -11 -11 -25 -11 -14 0 -25 5 -25
11 0 6 9 8 20 4 11 -4 20 -2 20 4 0 6 -9 11 -19 11 -11 0 -23 5 -26 10 -4 7 7
10 30 8 20 -1 39 -6 41 -10 3 -4 10 -8 17 -8 8 0 8 3 -1 12 -7 7 -12 16 -12
20 0 17 21 7 54 -26z m261 4 c3 -5 13 -6 23 -3 25 9 12 -2 -25 -21 -28 -14
-32 -14 -27 -1 4 8 11 15 18 16 6 0 2 4 -9 9 -16 7 -17 9 -3 9 9 1 19 -3 23
-9z m-165 -14 c0 -7 -10 -16 -22 -19 -27 -7 -32 -3 -25 18 8 19 47 20 47 1z
m49 -5 c12 -8 12 -12 -2 -25 -22 -22 -27 -20 -27 9 0 27 6 30 29 16z m185 -7
c3 -8 2 -12 -4 -9 -6 3 -10 10 -10 16 0 14 7 11 14 -7z m36 -8 c0 -3 -4 -8
-10 -11 -5 -3 -10 -1 -10 4 0 6 5 11 10 11 6 0 10 -2 10 -4z m-110 -123 c0 -8
-5 -13 -12 -11 -18 6 -21 25 -3 25 8 0 15 -7 15 -14z m-80 -3 c0 -5 -4 -10 -9
-10 -6 0 -13 5 -16 10 -3 6 1 10 9 10 9 0 16 -4 16 -10z m213 -70 c-6 -22 -18
-26 -29 -9 -3 6 0 15 7 20 22 14 28 11 22 -11z m647 -10 c0 -5 -2 -10 -4 -10
-3 0 -8 5 -11 10 -3 6 -1 10 4 10 6 0 11 -4 11 -10z m-220 -61 c0 -5 4 -8 9
-4 6 3 15 -4 21 -15 8 -15 8 -20 -3 -20 -7 0 -19 6 -26 13 -11 10 -11 8 -2
-10 14 -28 14 -29 -7 -30 -15 -1 -18 5 -16 35 2 44 2 42 14 42 6 0 10 -5 10
-11z m-250 -29 c0 -6 12 -22 27 -36 14 -13 24 -26 22 -29 -3 -2 -17 7 -31 20
-17 15 -29 21 -33 14 -4 -6 -12 -3 -21 8 -19 26 -17 33 11 33 14 0 25 -5 25
-10z m204 -5 c-4 -8 -7 -15 -9 -15 -2 0 -5 7 -9 15 -3 9 0 15 9 15 9 0 12 -6
9 -15z m15 -49 c14 -8 32 -11 40 -8 13 5 13 4 2 -9 -13 -13 -18 -13 -47 1 -18
8 -33 18 -34 23 0 10 11 8 39 -7z m-153 -33 c-11 -11 -17 4 -9 23 7 18 8 18
11 1 2 -10 1 -21 -2 -24z m-26 0 c0 -5 -4 -15 -10 -23 -11 -18 -25 -7 -17 15
6 15 27 21 27 8z m210 -33 c0 -5 -2 -10 -4 -10 -3 0 -8 5 -11 10 -3 6 -1 10 4
10 6 0 11 -4 11 -10z m-107 -22 c-17 -28 -2 -54 35 -60 17 -2 19 -6 12 -18 -7
-10 -12 -12 -17 -4 -5 6 -18 14 -30 18 -13 4 -23 12 -23 17 0 5 -7 9 -15 9
-36 0 -1 45 38 49 5 1 5 -5 0 -11z m30 -23 c4 -8 2 -17 -3 -20 -6 -4 -10 3
-10 14 0 25 6 27 13 6z m119 -8 c-4 -14 -7 -16 -13 -5 -12 19 -11 25 5 25 8 0
11 -8 8 -20z m-270 -9 c-7 -7 -12 -8 -12 -2 0 14 12 26 19 19 2 -3 -1 -11 -7
-17z m362 -13 c17 -13 17 -15 3 -21 -9 -3 -19 -14 -22 -25 -4 -10 -13 -19 -21
-19 -19 0 -18 29 1 36 15 6 21 34 7 34 -4 0 -14 -6 -21 -12 -10 -11 -11 -10
-6 5 8 21 33 22 59 2z m-132 -95 l22 -20 -27 2 c-16 1 -27 8 -28 18 0 8 -6 -1
-14 -20 -11 -31 -14 -33 -21 -16 -5 13 -3 21 4 24 7 2 12 10 12 18 0 20 27 17
52 -6z m3 -49 c-3 -6 -11 -8 -17 -5 -6 4 -5 9 3 15 16 10 23 4 14 -10z m-43
-29 c14 -6 14 -10 4 -24 -11 -15 -16 -16 -31 -4 -10 7 -15 18 -11 24 8 13 13
14 38 4z m-97 -12 c-3 -5 -11 -10 -16 -10 -6 0 -7 5 -4 10 3 6 11 10 16 10 6
0 7 -4 4 -10z m234 -105 c0 -5 -6 -1 -14 9 -8 10 -11 24 -8 29 6 10 21 -16 22
-38z m33 -120 c6 -28 -8 -35 -15 -7 -3 12 -5 10 -6 -7 -1 -20 -3 -22 -16 -11
-14 12 -14 15 1 31 23 25 31 24 36 -6z m13 -65 c3 -5 1 -10 -4 -10 -6 0 -11 5
-11 10 0 6 2 10 4 10 3 0 8 -4 11 -10z m-15 -31 c0 -5 5 -8 11 -6 6 1 13 -9
14 -22 1 -14 7 -27 13 -29 15 -5 16 -32 2 -32 -5 0 -10 5 -10 10 0 6 -7 10
-16 10 -11 0 -15 6 -11 19 2 11 -3 25 -14 35 -23 19 -25 38 -4 30 8 -4 15 -10
15 -15z m197 -85 c10 3 25 1 33 -4 16 -10 14 -11 -40 -13 -23 -1 -34 3 -32 11
1 6 -2 12 -8 12 -5 0 -10 5 -10 12 0 6 8 4 19 -6 11 -10 28 -15 38 -12z m99
-29 c21 -10 30 -11 35 -3 6 9 18 8 49 -1 41 -12 41 -13 24 -32 -16 -17 -16
-19 -1 -19 19 0 21 -17 7 -54 -7 -20 -6 -24 5 -19 8 3 15 0 15 -6 0 -6 -9 -11
-20 -11 -11 0 -20 5 -20 11 0 14 -25 39 -39 39 -6 0 -11 -5 -11 -11 0 -5 4 -8
9 -5 5 3 16 -5 25 -19 9 -14 23 -25 30 -25 8 0 16 -7 20 -15 3 -9 -1 -15 -11
-15 -12 0 -13 -3 -5 -13 8 -9 8 -24 1 -50 -5 -21 -7 -42 -3 -49 5 -7 3 -8 -6
-3 -10 6 -12 4 -7 -8 3 -10 2 -17 -3 -17 -6 0 -10 4 -10 8 0 4 -10 8 -22 9
-23 2 -23 2 -3 -13 11 -9 27 -19 35 -24 18 -10 13 -15 -22 -24 -21 -5 -28 -3
-28 9 0 14 -3 14 -25 -1 -14 -9 -32 -13 -45 -9 -21 7 -21 7 -3 22 16 13 16 14
1 9 -9 -3 -19 0 -22 7 -5 9 -7 9 -12 0 -3 -7 -12 -13 -20 -13 -17 0 -19 26 -1
33 9 4 8 8 -3 17 -12 9 -10 10 13 6 36 -8 35 2 -3 15 -16 6 -30 15 -30 21 0 5
6 8 13 5 6 -2 19 -1 27 3 20 11 54 -14 45 -32 -6 -10 -5 -11 6 0 18 16 29 15
29 -3 0 -8 5 -15 10 -15 15 0 12 16 -5 30 -20 17 -19 31 3 24 13 -5 14 -4 3 4
-8 6 -20 8 -28 5 -7 -3 -20 0 -28 7 -8 6 -19 9 -25 5 -6 -4 -9 -3 -8 2 1 4 -3
18 -10 31 -7 12 -10 27 -6 33 4 7 -1 7 -16 -1 -18 -10 -24 -9 -36 7 -16 21
-16 24 -5 42 6 10 11 5 16 -18 6 -30 8 -31 25 -16 10 9 20 12 21 6 3 -5 12 -4
23 5 17 12 18 16 6 27 -10 9 -12 9 -6 0 4 -7 2 -13 -4 -13 -7 0 -9 7 -6 15 6
17 -11 53 -34 71 -8 7 -11 16 -7 21 5 4 14 1 20 -8 7 -9 19 -18 27 -21 8 -2
15 -13 15 -24 0 -10 6 -18 13 -16 9 1 12 -5 10 -19 -4 -31 16 -34 30 -5 12 27
-1 48 -24 39 -8 -3 -14 0 -14 6 0 6 5 11 10 11 19 0 10 21 -15 32 -13 6 -22
15 -19 19 7 12 18 11 50 -6z m-246 -20 c0 -8 -2 -15 -4 -15 -2 0 -6 7 -10 15
-3 8 -1 15 4 15 6 0 10 -7 10 -15z m130 -4 c0 -5 -9 -11 -21 -14 -16 -4 -18
-3 -8 9 13 16 29 19 29 5z m-126 -50 c3 -5 -1 -11 -9 -15 -9 -3 -15 0 -15 9 0
16 16 20 24 6z m146 -5 c0 -8 -4 -17 -9 -20 -10 -7 -23 19 -14 28 11 11 23 6
23 -8z m-23 -141 c-8 -8 -17 -11 -21 -8 -11 11 -6 23 9 23 8 0 16 8 16 18 1
16 2 16 6 0 2 -10 -2 -25 -10 -33z m260 -37 c-3 -8 -6 -5 -6 6 -1 11 2 17 5
13 3 -3 4 -12 1 -19z m-261 -23 c15 -15 7 -21 -20 -16 -5 1 -6 -5 -3 -14 4 -8
2 -15 -3 -15 -11 0 -12 6 -4 38 7 26 11 27 30 7z m-149 -1 c-3 -3 -12 -4 -19
-1 -8 3 -5 6 6 6 11 1 17 -2 13 -5z m146 -79 c17 -24 17 -25 -2 -25 -14 0 -19
5 -15 15 4 10 0 15 -16 15 -11 0 -18 5 -15 10 10 17 29 11 48 -15z m-36 -21
c-3 -3 -12 -4 -19 -1 -8 3 -5 6 6 6 11 1 17 -2 13 -5z m-137 -63 c0 -6 -4 -13
-10 -16 -5 -3 -10 1 -10 9 0 9 5 16 10 16 6 0 10 -4 10 -9z m-30 -26 c0 -8
-10 -19 -21 -26 -17 -9 -20 -8 -13 3 5 7 9 16 10 21 3 15 4 17 14 17 6 0 10
-7 10 -15z m-2060 -85 c0 -5 -4 -10 -10 -10 -5 0 -10 5 -10 10 0 6 5 10 10 10
6 0 10 -4 10 -10z m1900 0 c0 -5 -5 -10 -11 -10 -5 0 -7 5 -4 10 3 6 8 10 11
10 2 0 4 -4 4 -10z m30 0 c0 -5 -5 -10 -11 -10 -5 0 -7 5 -4 10 3 6 8 10 11
10 2 0 4 -4 4 -10z m69 -33 c0 -21 -1 -21 -9 -2 -12 28 -12 37 0 30 6 -3 10
-16 9 -28z m-1989 -7 c-5 -16 -11 -33 -14 -38 -3 -5 6 -15 19 -22 13 -7 22
-17 19 -22 -3 -5 0 -15 6 -23 10 -12 9 -15 -4 -15 -9 0 -20 8 -23 17 -4 9 -15
25 -26 36 -13 13 -17 26 -12 45 5 20 29 49 42 52 1 0 -2 -13 -7 -30z m1975
-29 c3 -5 1 -12 -5 -16 -5 -3 -10 1 -10 9 0 18 6 21 15 7z m-2005 -121 c0 -5
-2 -10 -4 -10 -3 0 -8 5 -11 10 -3 6 -1 10 4 10 6 0 11 -4 11 -10z m41 -57 c8
-10 15 -22 16 -27 1 -5 6 -12 11 -15 5 -3 12 -17 16 -31 5 -17 4 -20 -2 -12
-5 8 -13 13 -18 13 -5 -1 -10 8 -10 19 -2 28 -9 33 -44 35 -34 2 -48 -20 -18
-28 11 -3 18 -12 16 -19 -7 -19 -29 -16 -42 7 -6 11 -14 22 -18 25 -4 3 1 13
12 23 13 11 21 13 26 5 4 -7 10 -5 16 6 12 21 20 20 39 -1z m9 -93 c12 -8 11
-10 -7 -10 -13 0 -23 5 -23 10 0 13 11 13 30 0z m1934 -7 c4 -5 13 -8 19 -8 6
0 19 -15 30 -32 10 -19 14 -33 8 -33 -6 0 -13 10 -16 23 -4 15 -14 22 -30 23
-14 1 -23 -2 -20 -6 11 -18 -17 -21 -29 -4 -20 26 15 60 38 37z m-1714 -18 c0
-8 -4 -15 -10 -15 -5 0 -7 7 -4 15 4 8 8 15 10 15 2 0 4 -7 4 -15z m-150 -16
c0 -5 -4 -9 -10 -9 -5 0 -10 7 -10 16 0 8 5 12 10 9 6 -3 10 -10 10 -16z m237
-5 c14 -14 14 -16 -6 -21 -11 -3 -21 -12 -21 -19 0 -20 -27 -17 -34 3 -7 18
12 35 31 28 7 -2 10 2 6 11 -7 19 4 18 24 -2z m-198 -36 c-5 -10 -17 -18 -26
-18 -9 0 -13 3 -10 7 4 3 3 11 -2 17 -6 8 0 11 19 11 24 0 27 -3 19 -17z
m1717 -35 c-10 -10 -19 5 -10 18 6 11 8 11 12 0 2 -7 1 -15 -2 -18z m104 3 c0
-19 -30 -29 -46 -15 -8 6 -14 8 -14 5 0 -4 -5 -4 -10 -1 -19 12 1 25 36 25 22
0 34 -5 34 -14z m-1795 -6 c-3 -5 -11 -10 -16 -10 -6 0 -7 5 -4 10 3 6 11 10
16 10 6 0 7 -4 4 -10z m1889 -20 c16 0 25 -4 21 -10 -3 -5 -1 -10 4 -10 6 0
11 -5 11 -11 0 -14 -25 -39 -39 -39 -6 0 -11 -5 -11 -11 0 -6 7 -8 16 -5 8 3
12 2 9 -4 -3 -6 -1 -10 4 -10 6 0 11 6 11 14 0 17 18 31 27 22 4 -3 -6 -20
-22 -36 l-28 -29 -24 26 c-14 15 -23 33 -20 44 3 10 -2 20 -10 23 -8 3 -11 11
-7 18 5 8 2 9 -9 5 -12 -5 -17 -1 -17 12 0 25 21 32 41 15 8 -8 28 -14 43 -14z
m-484 5 c0 -8 -4 -15 -10 -15 -5 0 -10 7 -10 15 0 8 5 15 10 15 6 0 10 -7 10
-15z m257 -1 c-10 -10 12 -44 28 -44 8 0 15 7 15 15 0 8 6 12 15 9 8 -3 14 -9
13 -12 -2 -19 3 -32 13 -32 6 0 9 6 6 13 -3 8 -1 20 4 28 7 11 9 10 9 -4 0
-10 5 -15 10 -12 6 3 10 -3 10 -13 0 -15 5 -19 20 -15 21 5 28 -11 10 -22 -5
-3 -9 -14 -9 -23 1 -16 2 -16 6 0 2 9 11 19 20 22 11 5 14 2 9 -9 -3 -9 -2
-13 3 -10 10 5 44 -35 36 -43 -2 -3 -12 -1 -22 3 -31 13 -52 15 -58 5 -4 -6 1
-7 11 -3 12 4 15 3 10 -5 -5 -8 -2 -10 8 -6 11 4 16 0 16 -14 0 -28 -29 -36
-52 -15 -15 13 -18 26 -14 55 3 23 1 38 -5 38 -6 0 -7 -4 -4 -10 13 -21 -8 -9
-28 16 -16 21 -26 25 -48 20 -22 -4 -29 -2 -29 10 0 12 -4 13 -20 4 -11 -6
-18 -14 -16 -18 3 -5 1 -14 -5 -22 -6 -11 -9 -8 -9 13 0 15 7 30 15 33 8 4 15
14 15 23 0 17 8 31 18 31 3 0 2 -3 -1 -6z m83 -4 c0 -5 -5 -10 -11 -10 -5 0
-7 5 -4 10 3 6 8 10 11 10 2 0 4 -4 4 -10z m-1736 -15 c3 -8 1 -15 -4 -15 -6
0 -10 7 -10 15 0 8 2 15 4 15 2 0 6 -7 10 -15z m1430 -17 c-9 -14 -23 2 -17
18 4 12 8 13 14 3 4 -7 5 -17 3 -21z m-1114 -4 c0 -17 -22 -14 -28 4 -2 7 3
12 12 12 9 0 16 -7 16 -16z m163 -22 c-3 -12 -9 -22 -14 -22 -12 0 -11 7 3 30
15 24 19 21 11 -8z m867 -12 c0 -5 -5 -10 -11 -10 -5 0 -7 5 -4 10 3 6 8 10
11 10 2 0 4 -4 4 -10z m-1405 -10 c-3 -5 -11 -10 -16 -10 -6 0 -7 5 -4 10 3 6
11 10 16 10 6 0 7 -4 4 -10z m1625 -24 c0 -3 -13 -6 -29 -6 -17 0 -31 -6 -35
-16 -3 -8 -10 -12 -16 -9 -14 9 -12 25 3 25 8 0 22 9 32 20 15 16 19 17 31 5
8 -7 14 -16 14 -19z m86 -33 c-10 -10 -19 5 -10 18 6 11 8 11 12 0 2 -7 1 -15
-2 -18z m103 18 c8 -5 9 -11 3 -15 -5 -3 -7 -17 -5 -31 3 -13 9 -22 14 -19 5
3 9 0 9 -7 0 -6 -8 -9 -20 -6 -16 4 -18 2 -10 -13 6 -10 10 -23 10 -28 0 -14
-55 -20 -67 -7 -13 14 -5 35 13 35 8 0 14 7 14 15 0 17 -36 39 -50 30 -6 -3
-10 -1 -10 4 0 11 13 15 38 12 7 -1 12 2 11 6 -5 32 19 44 50 24z m-186 -21
c-3 -12 0 -20 7 -20 7 0 9 -8 5 -20 -5 -14 -2 -20 10 -20 12 0 15 6 10 20 -5
17 -2 20 19 18 13 -1 24 -5 24 -8 -2 -27 4 -41 16 -37 11 4 13 -1 10 -18 -2
-13 3 -30 11 -39 19 -19 19 -27 0 -20 -8 4 -15 12 -15 19 0 8 -5 17 -12 21 -7
4 -8 3 -4 -4 9 -16 -7 -15 -22 0 -17 17 -15 28 4 21 12 -4 15 -2 12 8 -3 9
-16 13 -36 11 -21 -2 -34 3 -44 16 -7 10 -22 23 -32 29 -19 10 -18 11 2 17 12
4 22 12 22 17 0 5 4 9 9 9 5 0 7 -9 4 -20z m137 -44 c0 -3 -4 -8 -10 -11 -5
-3 -10 -1 -10 4 0 6 5 11 10 11 6 0 10 -2 10 -4z m-1099 -123 c16 -21 30 -30
41 -27 30 9 -3 -42 -35 -54 -23 -9 -28 -16 -24 -32 3 -11 1 -20 -4 -20 -5 0
-9 4 -9 9 0 5 -3 16 -6 25 -4 11 2 19 20 25 24 10 25 12 12 42 -13 31 -46 60
-46 41 0 -6 -7 -12 -15 -16 -11 -4 -15 1 -15 18 0 37 51 30 81 -11z m36 12 c0
-8 -4 -12 -9 -9 -4 3 -8 9 -8 15 0 5 4 9 8 9 5 0 9 -7 9 -15z m63 -4 c0 -12
-21 -19 -37 -13 -22 8 -14 22 12 22 14 0 25 -4 25 -9z m82 -40 c13 -5 28 -7
33 -6 6 1 7 0 3 -2 -5 -3 -8 -14 -9 -26 0 -12 -3 -16 -6 -9 -2 6 -11 12 -19
12 -8 0 -14 6 -14 13 0 7 -9 20 -19 29 -16 14 -20 14 -25 2 -3 -8 -1 -14 3
-14 5 0 12 -8 16 -17 5 -15 4 -16 -6 -5 -7 6 -22 12 -33 12 -20 1 -20 1 -3 14
9 7 17 18 17 24 0 19 25 19 32 0 4 -10 18 -22 30 -27z m18 24 c0 -12 -29 -3
-34 10 -4 13 -2 14 14 5 11 -6 20 -13 20 -15z m128 11 c-10 -7 -18 -18 -18
-25 0 -6 -7 -11 -16 -11 -8 0 -12 4 -9 10 3 6 -1 7 -9 4 -9 -3 -16 -12 -16
-20 0 -8 -4 -14 -10 -14 -5 0 -10 7 -10 15 0 8 -5 15 -12 15 -22 0 6 19 36 24
16 3 31 8 34 11 3 3 15 5 26 5 20 -1 20 -2 4 -14z m-357 -58 c-5 -13 -16 -25
-25 -25 -18 0 -21 13 -6 22 6 3 10 18 10 33 0 24 2 25 15 11 12 -12 13 -22 6
-41z m369 2 c0 -5 -4 -10 -10 -10 -5 0 -10 5 -10 10 0 6 5 10 10 10 6 0 10 -4
10 -10z"/>
<path d="M3135 1960 c-3 -5 -13 -6 -22 -3 -11 4 -14 3 -9 -5 4 -7 13 -12 21
-12 7 0 15 -4 17 -10 2 -5 9 -6 16 -1 7 4 10 15 6 24 -7 19 -20 22 -29 7z"/>
<path d="M3037 1853 c-13 -12 -7 -31 11 -37 9 -3 23 -9 30 -12 17 -8 15 24 -2
42 -16 15 -29 18 -39 7z"/>
<path d="M3134 1786 c-18 -14 -17 -15 13 -14 27 1 31 4 22 15 -14 16 -11 16
-35 -1z"/>
<path d="M3060 1685 c0 -8 4 -15 10 -15 5 0 7 7 4 15 -4 8 -8 15 -10 15 -2 0
-4 -7 -4 -15z"/>
<path d="M3090 1692 c0 -4 9 -13 20 -20 11 -7 20 -9 20 -4 0 4 -9 13 -20 20
-11 7 -20 9 -20 4z"/>
<path d="M3090 1650 c0 -5 5 -10 11 -10 5 0 7 5 4 10 -3 6 -8 10 -11 10 -2 0
-4 -4 -4 -10z"/>
<path d="M2750 934 c0 -8 5 -12 10 -9 6 3 10 10 10 16 0 5 -4 9 -10 9 -5 0
-10 -7 -10 -16z"/>
<path d="M2688 783 c7 -3 16 -2 19 1 4 3 -2 6 -13 5 -11 0 -14 -3 -6 -6z"/>
<path d="M2601 814 c0 -11 3 -14 6 -6 3 7 2 16 -1 19 -3 4 -6 -2 -5 -13z"/>
<path d="M1660 3400 c0 -5 7 -10 15 -10 8 0 15 5 15 10 0 6 -7 10 -15 10 -8 0
-15 -4 -15 -10z"/>
<path d="M1715 3370 c-3 -5 -2 -10 4 -10 5 0 13 5 16 10 3 6 2 10 -4 10 -5 0
-13 -4 -16 -10z"/>
<path d="M1925 3370 c3 -5 8 -10 11 -10 2 0 4 5 4 10 0 6 -5 10 -11 10 -5 0
-7 -4 -4 -10z"/>
<path d="M1680 3355 c0 -8 2 -15 4 -15 2 0 6 7 10 15 3 8 1 15 -4 15 -6 0 -10
-7 -10 -15z"/>
<path d="M1645 3319 c-6 -17 9 -59 22 -59 3 0 3 10 0 22 -4 13 0 26 10 33 14
11 14 13 -5 17 -15 4 -23 0 -27 -13z"/>
<path d="M1820 3330 c-13 -8 -12 -10 3 -10 9 0 17 5 17 10 0 12 -1 12 -20 0z"/>
<path d="M1948 3313 c6 -2 18 -2 25 0 6 3 1 5 -13 5 -14 0 -19 -2 -12 -5z"/>
<path d="M1706 3295 c23 -17 34 -19 34 -4 0 5 -4 7 -10 4 -5 -3 -10 -1 -10 4
0 6 -8 11 -17 11 -15 0 -14 -2 3 -15z"/>
<path d="M1755 3300 c3 -5 8 -10 11 -10 2 0 4 5 4 10 0 6 -5 10 -11 10 -5 0
-7 -4 -4 -10z"/>
<path d="M1780 3301 c0 -6 5 -13 10 -16 6 -3 10 1 10 9 0 9 -4 16 -10 16 -5 0
-10 -4 -10 -9z"/>
<path d="M1860 3281 c0 -11 4 -22 9 -25 5 -4 7 4 5 16 -2 13 -2 17 2 11 8 -19
35 -16 28 2 -9 22 -44 19 -44 -4z"/>
<path d="M1930 3273 c0 -30 19 -39 38 -18 14 14 14 17 2 13 -8 -3 -20 2 -27
11 -11 14 -12 13 -13 -6z"/>
<path d="M1758 3273 c-10 -2 -18 -12 -18 -20 0 -14 3 -14 20 2 17 15 26 28 18
24 -2 -1 -11 -3 -20 -6z"/>
<path d="M1820 3266 c0 -9 5 -16 10 -16 6 0 10 4 10 9 0 6 -4 13 -10 16 -5 3
-10 -1 -10 -9z"/>
<path d="M1711 3254 c0 -11 3 -14 6 -6 3 7 2 16 -1 19 -3 4 -6 -2 -5 -13z"/>
<path d="M1797 3263 c-4 -3 -7 -13 -7 -21 0 -18 13 -7 16 13 2 17 1 18 -9 8z"/>
<path d="M1622 3227 c-9 -24 -9 -33 1 -39 8 -5 4 -8 -10 -8 -13 0 -23 -5 -23
-11 0 -6 7 -9 15 -6 21 9 28 -9 7 -18 -16 -7 -15 -8 3 -15 35 -15 47 -12 40
10 -3 11 1 30 10 44 11 16 13 26 5 31 -6 3 -8 10 -5 15 3 5 -3 13 -13 19 -15
8 -20 4 -30 -22z"/>
<path d="M1763 3236 c-9 -11 -9 -15 0 -19 7 -3 14 3 14 14 2 22 2 22 -14 5z"/>
<path d="M1807 3226 c-21 -16 -22 -26 -3 -26 8 0 17 7 20 16 9 23 4 25 -17 10z"/>
<path d="M1870 3230 c0 -5 4 -10 9 -10 6 0 13 5 16 10 3 6 -1 10 -9 10 -9 0
-16 -4 -16 -10z"/>
<path d="M850 3215 c0 -8 2 -15 4 -15 2 0 6 7 10 15 3 8 1 15 -4 15 -6 0 -10
-7 -10 -15z"/>
<path d="M1520 3220 c-9 -6 -10 -10 -3 -10 6 0 15 5 18 10 8 12 4 12 -15 0z"/>
<path d="M1955 3220 c-3 -5 -1 -10 4 -10 6 0 11 5 11 10 0 6 -2 10 -4 10 -3 0
-8 -4 -11 -10z"/>
<path d="M914 3175 c8 -8 20 -15 27 -15 7 0 4 6 -7 15 -25 19 -40 19 -20 0z"/>
<path d="M1960 3170 c0 -5 5 -10 10 -10 6 0 10 5 10 10 0 6 -4 10 -10 10 -5 0
-10 -4 -10 -10z"/>
<path d="M1535 3159 c-18 -8 -17 -9 3 -5 20 4 23 1 19 -15 -3 -10 -1 -17 4
-13 11 6 12 31 2 37 -5 3 -17 0 -28 -4z"/>
<path d="M1495 3130 c-3 -5 1 -10 10 -10 9 0 13 5 10 10 -3 6 -8 10 -10 10 -2
0 -7 -4 -10 -10z"/>
<path d="M883 3116 c0 -8 6 -12 14 -9 7 3 10 9 7 14 -8 14 -21 11 -21 -5z"/>
<path d="M1520 3110 c-9 -6 -10 -10 -3 -10 6 0 15 5 18 10 8 12 4 12 -15 0z"/>
<path d="M850 3100 c0 -5 5 -10 11 -10 5 0 7 5 4 10 -3 6 -8 10 -11 10 -2 0
-4 -4 -4 -10z"/>
<path d="M1048 3103 c7 -3 16 -2 19 1 4 3 -2 6 -13 5 -11 0 -14 -3 -6 -6z"/>
<path d="M1474 3084 c6 -21 4 -25 -8 -21 -9 4 -16 2 -16 -3 0 -13 12 -13 44 0
31 11 34 30 5 30 -11 0 -17 5 -14 10 3 6 1 10 -5 10 -8 0 -10 -9 -6 -26z"/>
<path d="M935 3090 c-3 -5 -1 -10 4 -10 6 0 11 5 11 10 0 6 -2 10 -4 10 -3 0
-8 -4 -11 -10z"/>
<path d="M1013 3093 c4 -3 2 -12 -5 -20 -8 -10 -8 -12 4 -8 9 4 18 0 21 -8 3
-9 -1 -14 -11 -12 -28 3 -52 17 -46 26 3 5 -2 6 -10 3 -12 -5 -11 -9 5 -25 10
-10 24 -19 29 -19 6 0 10 -4 10 -9 0 -5 9 -13 21 -16 37 -12 14 -29 -42 -30
-85 -2 -99 -4 -99 -16 0 -6 9 -8 20 -4 24 8 29 -22 5 -31 -25 -10 -17 -22 13
-16 22 4 25 2 15 -9 -7 -7 -13 -18 -13 -23 0 -6 5 -4 10 4 8 12 11 13 19 1 11
-17 23 1 15 23 -3 9 -1 16 5 16 6 0 11 5 11 11 0 6 -6 9 -14 6 -8 -3 -17 0
-20 8 -5 14 18 28 29 17 3 -4 21 -7 38 -7 18 0 32 -5 32 -12 0 -6 4 -15 9 -20
5 -4 6 7 2 27 -3 19 -3 29 0 23 3 -7 13 -13 21 -13 14 0 14 2 0 18 -10 10 -14
21 -11 25 3 3 -6 21 -20 40 -14 19 -26 39 -26 45 0 7 -5 12 -12 12 -6 0 -8 -3
-5 -7z"/>
<path d="M894 3078 c3 -10 1 -18 -4 -18 -6 0 -10 -7 -10 -16 0 -14 1 -14 16 0
12 12 13 20 4 33 -11 17 -11 17 -6 1z"/>
<path d="M1393 3053 c-7 -18 -9 -33 -5 -33 12 1 46 30 35 30 -7 0 -13 8 -15
18 -3 12 -7 7 -15 -15z"/>
<path d="M785 3060 c-3 -5 -1 -10 4 -10 6 0 11 5 11 10 0 6 -2 10 -4 10 -3 0
-8 -4 -11 -10z"/>
<path d="M838 3063 c7 -3 16 -2 19 1 4 3 -2 6 -13 5 -11 0 -14 -3 -6 -6z"/>
<path d="M1516 3049 c-12 -11 -14 -19 -7 -19 7 0 9 -5 5 -11 -4 -7 -1 -10 7
-7 8 3 13 11 11 18 -2 7 2 16 9 20 6 4 7 10 3 12 -5 3 -18 -3 -28 -13z"/>
<path d="M1572 3040 c-10 -17 -10 -20 3 -20 9 0 12 -6 8 -15 -3 -10 0 -15 8
-13 8 2 13 -3 12 -9 -2 -7 2 -12 9 -10 18 3 22 -35 4 -45 -20 -11 -21 -39 -1
-32 8 4 13 9 10 13 -2 4 5 15 17 25 15 13 22 15 28 6 4 -7 8 -2 8 14 0 27 -13
35 -21 14 -3 -8 -6 -6 -6 5 -1 9 -6 17 -12 17 -8 0 -8 4 0 14 9 11 5 15 -18
19 -16 4 -31 13 -33 22 -2 13 -5 12 -16 -5z"/>
<path d="M1668 3041 c-2 -9 4 -23 13 -33 16 -15 17 -14 21 12 3 21 0 30 -13
33 -10 3 -19 -2 -21 -12z"/>
<path d="M2144 3051 c4 -5 0 -12 -6 -14 -8 -3 -6 -6 5 -6 9 -1 17 6 17 14 0 8
-5 15 -11 15 -5 0 -8 -4 -5 -9z"/>
<path d="M835 3040 c-4 -6 3 -10 14 -10 25 0 27 6 6 13 -8 4 -17 2 -20 -3z"/>
<path d="M916 3025 c8 -20 56 -38 64 -24 6 8 9 8 13 0 4 -8 5 -8 3 0 -1 7 -21
18 -43 24 -33 10 -40 10 -37 0z"/>
<path d="M1315 3019 c-16 -10 -23 -19 -15 -18 19 1 59 17 45 18 -5 1 -3 6 5
11 8 5 11 9 5 9 -5 0 -23 -9 -40 -20z"/>
<path d="M1720 3022 c0 -12 -1 -25 -2 -29 -1 -5 6 -10 16 -11 15 -3 17 1 11
20 -11 34 -25 46 -25 20z"/>
<path d="M2170 3020 c-9 -6 -10 -10 -3 -10 6 0 15 5 18 10 8 12 4 12 -15 0z"/>
<path d="M1190 3001 c0 -10 19 -25 25 -20 1 2 -3 10 -11 17 -8 7 -14 8 -14 3z"/>
<path d="M1235 3000 c11 -5 27 -9 35 -9 9 0 8 4 -5 9 -11 5 -27 9 -35 9 -9 0
-8 -4 5 -9z"/>
<path d="M483 2993 c2 -5 34 -58 71 -119 36 -62 66 -121 66 -133 0 -12 5 -21
10 -21 6 0 10 -7 10 -15 0 -9 6 -15 13 -14 6 2 30 -3 52 -9 52 -15 53 -15 60
8 3 11 13 20 21 20 8 0 13 4 12 9 -2 5 5 16 14 23 16 12 16 15 1 33 -10 14
-17 16 -20 8 -5 -15 -23 -17 -23 -4 0 15 41 24 53 12 14 -14 44 -14 53 1 5 8
0 9 -14 6 -16 -4 -22 -2 -22 9 0 9 6 13 15 9 18 -7 18 -5 2 26 -10 20 -15 23
-25 12 -7 -7 -12 -20 -12 -29 0 -8 -7 -15 -16 -15 -13 0 -14 3 -5 14 20 24 -6
28 -28 5 -19 -21 -20 -21 -14 -1 3 11 1 27 -4 36 -6 11 -8 3 -8 -26 0 -27 -5
-43 -14 -46 -9 -3 -2 -11 20 -23 28 -15 30 -18 12 -19 -12 0 -24 -6 -27 -12
-3 -7 -3 -3 -1 8 4 14 0 24 -9 27 -9 4 -12 14 -9 28 5 18 3 21 -10 16 -11 -4
-17 2 -22 23 -4 17 -11 33 -17 37 -8 4 -9 0 -5 -10 4 -10 10 -24 13 -32 4 -10
2 -13 -8 -10 -17 7 -42 45 -28 45 5 0 10 5 10 11 0 5 -4 7 -10 4 -5 -3 -10 1
-10 9 0 9 -4 16 -9 16 -5 0 -36 20 -69 45 -56 42 -79 55 -69 38z m327 -233 c0
-5 -4 -10 -10 -10 -5 0 -10 5 -10 10 0 6 5 10 10 10 6 0 10 -4 10 -10z"/>
<path d="M844 2977 c4 -18 -1 -25 -24 -35 -16 -8 -35 -10 -41 -6 -7 4 -10 1
-7 -7 3 -8 14 -15 26 -17 12 -2 20 -8 17 -13 -4 -5 -1 -9 6 -9 8 0 8 -4 -1
-15 -8 -9 -9 -15 -2 -15 6 0 14 5 17 10 5 8 11 7 21 -1 11 -9 14 -8 14 5 0 9
-6 16 -14 16 -8 0 -17 7 -20 16 -10 25 -7 34 9 28 11 -5 14 2 13 30 -1 20 -5
36 -11 36 -5 0 -7 -10 -3 -23z"/>
<path d="M1460 2989 c0 -5 5 -7 10 -4 6 3 10 8 10 11 0 2 -4 4 -10 4 -5 0 -10
-5 -10 -11z"/>
<path d="M1493 2993 c4 -3 -1 -12 -11 -19 -16 -12 -16 -13 2 -10 25 3 43 36
20 36 -10 0 -14 -3 -11 -7z"/>
<path d="M1815 2990 c-3 -5 1 -10 9 -10 9 0 16 5 16 10 0 6 -4 10 -9 10 -6 0
-13 -4 -16 -10z"/>
<path d="M1308 2968 c-22 -27 -18 -31 18 -18 15 6 24 14 19 18 -6 4 -12 10
-15 14 -3 4 -13 -3 -22 -14z"/>
<path d="M1378 2985 c-8 -9 3 -45 13 -45 5 0 9 6 9 13 0 17 -15 39 -22 32z"/>
<path d="M1413 2971 c1 -15 4 -17 14 -9 7 5 10 14 7 19 -10 16 -23 9 -21 -10z"/>
<path d="M2700 2979 c0 -5 5 -7 10 -4 6 3 10 8 10 11 0 2 -4 4 -10 4 -5 0 -10
-5 -10 -11z"/>
<path d="M785 2970 c-3 -5 -1 -10 4 -10 6 0 11 5 11 10 0 6 -2 10 -4 10 -3 0
-8 -4 -11 -10z"/>
<path d="M1142 2959 c-12 -18 -11 -19 6 -10 11 6 22 7 26 3 4 -3 4 1 0 11 -8
22 -16 22 -32 -4z"/>
<path d="M1230 2976 c0 -2 7 -6 15 -10 8 -3 15 -1 15 4 0 6 -7 10 -15 10 -8 0
-15 -2 -15 -4z"/>
<path d="M2258 2973 c7 -3 16 -2 19 1 4 3 -2 6 -13 5 -11 0 -14 -3 -6 -6z"/>
<path d="M1516 2955 c-3 -9 3 -19 14 -25 14 -7 20 -7 20 0 0 5 -5 10 -11 10
-5 0 -8 4 -4 9 3 5 1 12 -4 15 -5 3 -11 -1 -15 -9z"/>
<path d="M1717 2963 c-4 -3 -7 -11 -7 -17 0 -6 5 -5 12 2 6 6 9 14 7 17 -3 3
-9 2 -12 -2z"/>
<path d="M1805 2960 c-18 -8 -17 -9 8 -9 16 -1 26 3 22 9 -3 6 -7 10 -8 9 -1
0 -11 -4 -22 -9z"/>
<path d="M1963 2945 c-7 -8 -13 -19 -13 -25 0 -5 -7 -10 -17 -10 -9 0 -14 -3
-10 -6 8 -9 48 6 42 16 -3 5 4 11 15 15 11 4 18 11 15 16 -8 12 -18 11 -32 -6z"/>
<path d="M2665 2950 c-3 -5 -15 -10 -26 -10 -11 0 -19 -7 -19 -16 0 -11 5 -14
18 -9 9 4 25 10 35 12 9 3 17 12 17 19 0 16 -16 19 -25 4z"/>
<path d="M2043 2943 c-15 -5 -18 -33 -4 -33 8 0 25 30 19 35 -2 1 -9 0 -15 -2z"/>
<path d="M2310 2942 c0 -4 9 -13 20 -20 23 -14 26 -7 6 14 -16 15 -26 18 -26
6z"/>
<path d="M2755 2940 c3 -5 8 -10 11 -10 2 0 4 5 4 10 0 6 -5 10 -11 10 -5 0
-7 -4 -4 -10z"/>
<path d="M864 2925 c-3 -8 -3 -19 1 -25 11 -18 25 -11 25 15 0 27 -17 34 -26
10z"/>
<path d="M1006 2933 c-3 -4 -6 -13 -6 -22 0 -13 2 -13 9 -2 5 7 14 10 20 7 6
-4 11 -3 11 2 0 12 -26 23 -34 15z"/>
<path d="M1180 2926 c0 -8 5 -18 10 -21 15 -9 12 -22 -6 -29 -20 -8 -33 2 -17
12 7 5 7 11 -3 20 -12 11 -14 9 -14 -8 0 -11 -4 -20 -10 -20 -5 0 -10 5 -10
10 0 6 -5 10 -11 10 -8 0 -8 -4 0 -14 10 -11 8 -16 -6 -24 -10 -6 -14 -14 -10
-18 4 -4 13 -2 19 4 12 12 48 17 48 6 0 -3 -5 -15 -11 -26 -9 -16 -8 -19 3
-16 7 3 14 15 16 27 2 15 13 24 33 28 24 5 28 9 23 28 -4 17 -1 24 13 28 15 4
14 5 -4 6 -14 1 -23 -5 -23 -14 0 -8 -4 -15 -10 -15 -5 0 -10 6 -10 14 0 8 -4
18 -10 21 -5 3 -10 -1 -10 -9z"/>
<path d="M1353 2925 c0 -8 4 -12 9 -9 4 3 8 9 8 15 0 5 -4 9 -8 9 -5 0 -9 -7
-9 -15z"/>
<path d="M1468 2933 c7 -3 16 -2 19 1 4 3 -2 6 -13 5 -11 0 -14 -3 -6 -6z"/>
<path d="M1895 2930 c3 -5 14 -10 23 -10 15 0 15 2 2 10 -20 13 -33 13 -25 0z"/>
<path d="M2368 2933 c6 -2 18 -2 25 0 6 3 1 5 -13 5 -14 0 -19 -2 -12 -5z"/>
<path d="M1300 2921 c0 -6 4 -13 10 -16 6 -3 7 1 4 9 -7 18 -14 21 -14 7z"/>
<path d="M1420 2920 c0 -5 5 -10 11 -10 5 0 7 5 4 10 -3 6 -8 10 -11 10 -2 0
-4 -4 -4 -10z"/>
<path d="M1700 2904 c0 -11 -6 -15 -19 -11 -10 2 -25 1 -32 -4 -9 -6 0 -9 28
-9 36 0 41 2 36 20 -6 24 -13 26 -13 4z"/>
<path d="M1735 2910 c-11 -5 -17 -9 -13 -9 3 -1 13 -3 21 -6 8 -4 14 0 14 10
0 8 -1 15 -1 14 -1 0 -10 -4 -21 -9z"/>
<path d="M1855 2910 c4 -6 11 -8 16 -5 14 9 11 15 -7 15 -8 0 -12 -5 -9 -10z"/>
<path d="M2152 2913 c-7 -2 -17 -13 -22 -23 -8 -15 -6 -18 15 -16 19 1 25 7
25 24 0 12 -1 22 -2 21 -2 0 -9 -3 -16 -6z"/>
<path d="M1245 2900 c-3 -5 -1 -10 4 -10 6 0 11 -7 11 -15 0 -17 25 -20 35 -5
3 6 -1 7 -9 4 -11 -4 -16 0 -16 15 0 22 -14 28 -25 11z"/>
<path d="M1540 2895 c-10 -13 -9 -15 8 -15 15 0 20 5 16 15 -4 8 -7 15 -9 15
-1 0 -8 -7 -15 -15z"/>
<path d="M2746 2897 c-11 -8 -17 -19 -15 -24 2 -6 12 0 22 13 20 27 19 30 -7
11z"/>
<path d="M1456 2891 c-3 -5 2 -15 12 -22 15 -12 16 -12 5 2 -7 9 -10 19 -6 22
3 4 4 7 0 7 -3 0 -8 -4 -11 -9z"/>
<path d="M700 2880 c-11 -7 -11 -10 -2 -10 7 0 10 -5 6 -12 -4 -7 -3 -8 5 -4
6 4 9 11 6 16 -3 4 1 11 7 13 7 3 9 6 3 6 -5 0 -17 -4 -25 -9z"/>
<path d="M892 2878 c-17 -17 -15 -49 2 -42 18 7 29 35 18 46 -4 4 -13 3 -20
-4z"/>
<path d="M1906 2875 c4 -8 10 -12 15 -9 14 8 10 24 -6 24 -9 0 -12 -6 -9 -15z"/>
<path d="M2053 2883 c9 -2 17 -13 17 -23 0 -23 34 -32 57 -13 17 13 15 14 -14
10 -25 -3 -30 0 -23 9 8 8 4 13 -12 18 -13 3 -27 5 -33 5 -5 -1 -2 -3 8 -6z"/>
<path d="M1728 2873 c-10 -2 -18 -9 -18 -14 0 -6 7 -6 19 1 26 14 31 13 25 -5
-4 -8 -1 -15 6 -15 6 0 8 -4 5 -10 -3 -5 -1 -10 4 -10 13 0 13 2 1 34 -10 26
-12 27 -42 19z"/>
<path d="M1810 2876 c0 -2 7 -7 16 -10 8 -3 12 -2 9 4 -6 10 -25 14 -25 6z"/>
<path d="M2830 2860 c0 -11 2 -20 4 -20 2 0 6 9 9 20 3 11 1 20 -4 20 -5 0 -9
-9 -9 -20z"/>
<path d="M1070 2862 c0 -7 -5 -10 -11 -7 -6 4 -5 -2 3 -14 14 -23 28 -28 28
-8 0 17 -20 46 -20 29z"/>
<path d="M1410 2860 c19 -13 30 -13 30 0 0 6 -10 10 -22 10 -19 0 -20 -2 -8
-10z"/>
<path d="M1639 2865 c-1 -3 -2 -8 -3 -12 -1 -5 -5 -14 -9 -20 -6 -9 -3 -11 8
-7 9 4 14 13 10 21 -4 11 -1 13 10 9 9 -3 13 -2 10 4 -6 10 -24 14 -26 5z"/>
<path d="M2013 2844 c-10 -21 -10 -24 2 -14 8 7 18 9 22 7 5 -3 10 3 10 14 2
28 -20 23 -34 -7z"/>
<path d="M1588 2852 c-12 -5 -15 -11 -9 -21 8 -12 12 -12 25 2 26 26 20 33
-16 19z"/>
<path d="M1268 2843 c7 -3 16 -2 19 1 4 3 -2 6 -13 5 -11 0 -14 -3 -6 -6z"/>
<path d="M1867 2844 c-4 -4 -7 -14 -7 -23 0 -11 3 -12 11 -4 6 6 10 16 7 23
-2 6 -7 8 -11 4z"/>
<path d="M1951 2834 c-7 -8 -11 -17 -9 -20 3 -2 13 5 23 16 10 11 14 20 9 20
-5 -1 -15 -8 -23 -16z"/>
<path d="M2193 2835 c-8 -23 0 -25 21 -4 18 17 18 19 2 19 -9 0 -19 -7 -23
-15z"/>
<path d="M2726 2838 c3 -4 10 -6 15 -3 5 4 9 1 9 -4 0 -6 7 -11 16 -11 27 0 9
25 -19 26 -14 1 -24 -3 -21 -8z"/>
<path d="M1108 2819 c-23 -24 -22 -28 0 -22 22 5 49 43 30 42 -7 0 -21 -9 -30
-20z"/>
<path d="M1350 2835 c0 -5 5 -17 10 -25 5 -8 10 -10 10 -5 0 6 -5 17 -10 25
-5 8 -10 11 -10 5z"/>
<path d="M1385 2830 c-3 -5 -1 -10 4 -10 6 0 11 5 11 10 0 6 -2 10 -4 10 -3 0
-8 -4 -11 -10z"/>
<path d="M1426 2834 c6 -3 9 -16 6 -29 -2 -14 0 -25 4 -25 5 0 9 14 10 30 1
22 -3 30 -15 29 -9 0 -11 -3 -5 -5z"/>
<path d="M1490 2830 c-23 -7 -23 -8 -3 -9 12 -1 25 4 28 9 3 6 5 10 3 9 -2 -1
-14 -5 -28 -9z"/>
<path d="M1685 2830 c-3 -5 -1 -10 4 -10 6 0 11 5 11 10 0 6 -2 10 -4 10 -3 0
-8 -4 -11 -10z"/>
<path d="M1046 2803 c6 -23 5 -25 -12 -19 -10 4 -15 4 -11 0 4 -4 -3 -19 -15
-32 -13 -14 -18 -22 -11 -18 6 3 14 2 17 -3 4 -5 -3 -12 -14 -16 -11 -3 -20
-13 -20 -22 0 -14 3 -14 20 2 11 10 20 14 20 8 0 -23 29 -7 32 18 3 15 1 26
-4 23 -12 -8 -9 9 6 29 14 19 11 57 -5 57 -5 0 -6 -12 -3 -27z"/>
<path d="M1308 2823 c7 -3 16 -2 19 1 4 3 -2 6 -13 5 -11 0 -14 -3 -6 -6z"/>
<path d="M895 2810 c3 -5 11 -10 16 -10 6 0 7 5 4 10 -3 6 -11 10 -16 10 -6 0
-7 -4 -4 -10z"/>
<path d="M1207 2813 c-4 -3 -7 -11 -7 -17 0 -6 5 -5 12 2 6 6 9 14 7 17 -3 3
-9 2 -12 -2z"/>
<path d="M1546 2801 c-11 -4 -15 -10 -10 -13 5 -4 18 0 29 8 20 15 12 17 -19
5z"/>
<path d="M1466 2785 c-4 -10 1 -15 15 -15 11 0 17 5 14 10 -3 6 -1 10 4 10 6
0 11 -4 11 -10 0 -5 5 -10 11 -10 8 0 8 5 -1 15 -7 8 -20 15 -30 15 -10 0 -20
-7 -24 -15z"/>
<path d="M1625 2790 c4 -6 11 -8 16 -5 14 9 11 15 -7 15 -8 0 -12 -5 -9 -10z"/>
<path d="M1735 2790 c3 -5 8 -10 11 -10 2 0 4 5 4 10 0 6 -5 10 -11 10 -5 0
-7 -4 -4 -10z"/>
<path d="M1845 2790 c-11 -5 -14 -9 -7 -9 6 -1 12 -6 12 -12 0 -5 -4 -7 -10
-4 -5 3 -10 1 -10 -4 0 -12 30 -15 31 -3 0 4 2 15 4 25 2 9 3 17 2 16 -1 0
-11 -4 -22 -9z"/>
<path d="M2005 2790 c-4 -6 1 -7 11 -3 13 5 15 3 9 -7 -5 -9 -4 -11 4 -6 6 4
9 12 6 17 -8 12 -22 12 -30 -1z"/>
<path d="M2202 2793 c-12 -5 -35 -23 -89 -70 -24 -21 -24 -23 -6 -23 12 0 23
7 27 15 3 8 17 20 31 27 14 6 25 16 25 21 0 5 8 16 18 23 18 14 16 16 -6 7z"/>
<path d="M2835 2790 c3 -5 8 -10 11 -10 2 0 4 5 4 10 0 6 -5 10 -11 10 -5 0
-7 -4 -4 -10z"/>
<path d="M1125 2780 c-3 -5 -1 -10 4 -10 6 0 11 5 11 10 0 6 -2 10 -4 10 -3 0
-8 -4 -11 -10z"/>
<path d="M1910 2760 c0 -16 4 -30 8 -30 5 0 7 14 4 30 -2 17 -6 30 -8 30 -2 0
-4 -13 -4 -30z"/>
<path d="M2240 2782 c0 -4 6 -14 12 -20 9 -9 10 -15 2 -20 -19 -12 -24 -52 -7
-52 9 0 13 6 10 14 -3 8 0 17 7 19 7 3 13 19 14 36 0 24 -4 31 -19 31 -10 0
-19 -4 -19 -8z"/>
<path d="M1287 2773 c-4 -3 -7 -11 -7 -17 0 -6 5 -5 12 2 6 6 9 14 7 17 -3 3
-9 2 -12 -2z"/>
<path d="M1645 2770 l-20 -9 20 0 c11 0 29 4 40 9 l20 9 -20 0 c-11 0 -29 -4
-40 -9z"/>
<path d="M2118 2767 c-7 -7 -22 -18 -33 -25 -15 -9 -16 -11 -4 -12 8 0 26 11
39 25 24 25 22 36 -2 12z"/>
<path d="M1366 2747 c-19 -20 -20 -20 -27 -1 -4 10 -8 14 -8 7 -1 -6 -4 -20
-7 -30 -5 -15 -4 -15 5 -3 9 13 11 13 11 -2 0 -10 -4 -18 -10 -18 -5 0 -10 -9
-10 -19 0 -12 -10 -21 -27 -26 -26 -7 -26 -8 -8 -15 11 -5 14 -9 8 -9 -7 -1
-15 0 -17 2 -6 3 -56 -56 -57 -68 -1 -5 -1 -15 0 -22 1 -6 -6 -14 -16 -16 -11
-3 -6 -5 12 -7 17 -1 24 -4 18 -7 -18 -7 -16 -30 3 -41 14 -8 14 -10 0 -21 -9
-8 -16 -21 -16 -31 0 -10 -7 -21 -16 -24 -26 -10 -27 -7 -10 19 14 22 15 25 1
25 -8 0 -15 5 -15 11 0 5 4 8 9 4 5 -3 12 -1 15 4 4 5 1 13 -5 17 -8 4 -7 9 2
16 11 8 10 9 -3 4 -14 -4 -18 1 -18 23 0 16 -7 31 -15 35 -19 7 -19 -3 1 -42
14 -28 14 -33 -2 -57 -10 -15 -12 -25 -5 -25 6 0 11 -5 11 -11 0 -6 -7 -8 -16
-5 -8 3 -12 2 -9 -3 3 -5 1 -12 -5 -16 -12 -8 -13 -36 -1 -33 9 3 11 -2 11
-24 0 -9 -4 -8 -10 2 -9 13 -13 12 -30 -9 -21 -25 -26 -51 -10 -51 19 0 10
-29 -11 -35 -14 -5 -18 -10 -11 -17 14 -14 -32 -111 -53 -114 -10 -2 -15 4
-13 14 2 9 10 17 18 17 8 0 15 8 15 17 0 9 4 20 8 24 13 14 7 31 -22 62 -16
16 -26 34 -23 38 4 4 1 4 -5 0 -9 -5 -13 -1 -13 12 0 10 10 23 22 29 l23 10
-23 12 c-33 18 -27 30 13 25 20 -2 35 0 35 6 0 5 -13 10 -30 10 -34 0 -41 19
-10 27 11 3 20 10 20 15 0 8 -38 2 -49 -8 -2 -2 -4 -19 -5 -39 0 -19 -4 -35
-7 -35 -12 0 -16 -49 -5 -54 6 -2 4 -5 -5 -5 -20 -1 -43 24 -34 39 10 16 -19
12 -41 -6 -18 -14 -18 -15 4 -4 26 13 27 8 6 -24 -10 -16 -12 -26 -5 -31 6 -3
11 1 11 9 0 21 27 20 38 0 6 -11 11 -13 16 -5 4 6 12 11 18 11 6 0 3 -11 -6
-25 -21 -31 -20 -52 1 -64 24 -13 10 -25 -15 -12 -14 7 -24 7 -35 -2 -17 -14
-35 -63 -19 -53 5 3 13 -1 16 -10 5 -12 2 -15 -13 -11 -10 2 -25 1 -32 -4 -9
-5 -5 -10 14 -14 22 -6 24 -9 13 -20 -7 -7 -21 -15 -32 -18 -14 -5 18 -3 64 3
2 0 0 5 -3 10 -3 6 2 10 13 10 15 0 18 5 14 28 -2 15 -10 32 -17 37 -10 8 -10
13 0 22 10 9 15 2 25 -35 7 -26 14 -53 16 -59 2 -7 10 -10 19 -7 11 4 15 0 15
-16 l0 -21 -26 20 c-23 18 -28 19 -41 6 -8 -8 -32 -15 -53 -15 -25 0 -40 -5
-44 -15 -4 -12 0 -14 22 -9 43 10 47 10 43 -6 -11 -47 -12 -54 -4 -45 11 14
40 18 47 6 11 -16 -34 -62 -55 -56 -12 4 -19 2 -19 -7 0 -14 -34 -48 -49 -48
-5 0 -14 -6 -20 -14 -9 -10 -8 -16 4 -26 12 -10 15 -9 15 5 0 13 6 16 21 12
15 -4 19 -2 15 8 -6 16 10 30 18 17 3 -5 7 -24 8 -41 1 -18 6 -35 10 -37 14
-9 -16 -56 -46 -72 -24 -12 -27 -17 -13 -20 9 -2 17 -7 18 -10 5 -42 4 -52 -3
-52 -4 0 -8 -10 -7 -22 0 -15 2 -18 6 -8 3 8 12 20 21 27 12 10 13 17 2 42
-13 33 -7 53 15 44 10 -3 15 1 15 15 0 31 11 52 27 52 8 0 12 4 8 9 -3 5 -1
12 5 16 5 3 10 11 10 18 0 8 -3 8 -12 -1 -14 -14 -32 -16 -24 -3 3 5 -1 11 -9
15 -23 8 -18 30 9 42 20 9 26 9 30 -2 4 -9 -2 -14 -16 -14 -17 0 -19 -3 -10
-12 8 -8 18 -9 35 -1 20 9 23 17 19 38 -3 20 -7 23 -13 13 -7 -10 -9 -9 -9 3
0 31 28 30 35 -1 4 -16 4 -33 1 -38 -2 -4 -1 -14 4 -22 5 -9 1 -19 -13 -31
-17 -13 -19 -20 -11 -29 7 -6 9 -20 7 -31 -6 -23 -43 -47 -43 -27 0 9 -3 9
-12 -1 -11 -10 -9 -15 6 -26 21 -16 40 -10 29 8 -3 7 3 3 15 -7 28 -24 28 -38
0 -34 -11 2 -23 -2 -25 -8 -2 -6 10 -11 28 -11 27 0 30 3 26 24 -2 13 0 23 4
23 5 0 9 -4 9 -9 0 -5 7 -17 16 -25 14 -14 13 -17 -10 -28 -14 -6 -26 -17 -26
-25 0 -15 17 -18 22 -4 2 5 15 13 30 16 22 6 26 4 22 -12 -3 -10 6 -29 21 -45
18 -20 21 -28 11 -28 -8 0 -18 -5 -22 -11 -5 -9 1 -10 21 -5 25 6 27 5 16 -8
-11 -13 -11 -16 2 -16 8 0 18 6 20 13 3 6 3 -3 0 -21 -5 -28 -3 -31 12 -25 12
4 16 3 12 -4 -4 -6 -1 -13 6 -16 9 -3 14 -22 14 -51 1 -25 5 -51 9 -57 12 -20
23 22 13 48 -5 13 -4 25 1 28 16 10 30 -4 30 -31 0 -26 9 -31 27 -13 23 23 21
-8 -2 -37 -19 -22 -24 -25 -25 -11 0 9 -3 17 -6 17 -9 0 -36 -30 -27 -30 4 0
1 -5 -7 -10 -11 -7 -4 -10 28 -10 35 0 42 -3 42 -20 0 -11 3 -20 8 -20 15 0
67 40 67 51 0 22 36 18 45 -4 5 -12 9 -16 9 -9 1 16 16 15 35 -3 8 -8 21 -13
29 -10 7 3 20 -2 28 -11 11 -13 11 -18 1 -21 -6 -3 -10 -9 -6 -14 8 -14 31
-11 38 7 3 8 2 12 -4 9 -6 -3 -10 -1 -10 4 0 12 29 15 53 6 11 -5 12 -13 3
-40 -6 -19 -14 -35 -18 -35 -5 0 -8 -21 -8 -46 0 -25 4 -43 9 -40 5 3 7 20 5
38 -1 18 0 27 3 21 10 -25 23 -12 23 22 0 23 5 35 14 35 9 0 12 7 9 20 -3 11
0 20 6 20 6 0 12 -4 12 -10 1 -5 2 -15 3 -22 0 -6 7 -13 15 -16 10 -3 12 1 8
17 -3 14 0 21 8 21 8 0 16 -8 18 -17 4 -17 5 -17 6 0 1 18 3 19 36 20 50 1 56
-3 50 -23 -3 -11 -3 -20 2 -20 10 0 36 80 28 88 -3 3 -5 1 -5 -5 0 -6 -12 -13
-26 -16 -18 -3 -22 -1 -15 6 6 6 11 15 11 19 0 12 -28 10 -32 -3 -2 -6 -12 0
-23 13 -15 17 -16 19 -2 9 14 -11 20 -11 32 -1 9 8 20 9 28 4 14 -11 34 -10
60 1 10 4 23 2 32 -5 8 -7 15 -9 15 -5 0 4 -8 14 -17 21 -21 14 -15 24 16 27
11 1 21 4 21 7 0 10 72 30 83 23 6 -3 7 -1 3 5 -4 6 6 18 24 27 16 8 30 20 30
25 0 6 7 10 16 10 9 0 18 9 21 21 3 12 11 18 19 15 14 -5 19 6 8 17 -9 9 -44
-16 -44 -30 0 -7 -7 -13 -15 -13 -7 0 -18 -7 -23 -16 -5 -8 -15 -16 -24 -17
-8 -2 -26 -10 -39 -18 -36 -24 -155 -50 -224 -50 -104 0 -158 10 -222 41 -34
17 -69 30 -78 30 -9 0 -14 4 -10 9 3 5 -4 12 -15 16 -40 13 -150 138 -185 210
-88 178 -88 334 0 512 36 73 58 103 108 148 118 107 283 165 430 150 76 -7
187 -41 244 -75 19 -11 38 -18 42 -15 5 2 13 -7 20 -21 6 -14 16 -22 21 -19 6
3 10 2 10 -2 0 -5 20 -31 45 -58 24 -28 48 -54 53 -60 8 -10 24 -48 22 -53 0
-2 9 -12 22 -22 14 -12 18 -19 9 -20 -11 0 -10 -5 2 -24 9 -13 16 -36 16 -52
2 -49 4 -64 11 -64 3 0 6 -9 6 -19 0 -11 -4 -17 -8 -15 -4 3 -8 -21 -8 -53 -1
-32 -5 -77 -9 -101 -7 -34 -6 -40 5 -31 7 6 17 8 21 6 5 -3 8 13 8 35 0 22 2
41 5 43 3 2 5 27 4 54 -1 37 2 51 12 51 8 0 14 10 13 23 0 21 -1 21 -9 2 -10
-22 -11 -20 -15 13 -1 14 3 22 14 23 10 0 7 4 -8 10 -20 8 -22 11 -10 27 19
23 31 32 48 32 9 0 10 -4 3 -12 -6 -8 -6 -21 -1 -33 9 -18 9 -18 5 3 -3 14 1
25 10 29 8 3 14 9 14 15 0 5 -4 6 -10 3 -5 -3 -10 1 -10 9 0 13 -4 13 -34 1
-38 -16 -47 -11 -36 20 5 13 2 24 -9 32 -9 7 -11 12 -6 12 6 0 19 -6 29 -14
16 -12 17 -17 6 -30 -11 -13 -10 -14 4 -9 9 3 16 10 16 15 0 5 7 9 15 9 8 0
15 5 15 10 0 20 -43 100 -54 100 -6 0 -3 5 7 11 9 5 17 17 17 24 0 17 16 20
22 6 2 -5 12 -3 22 5 11 8 14 14 8 14 -7 0 -12 5 -12 10 0 6 9 10 20 10 13 0
20 -7 20 -19 0 -11 5 -23 10 -26 14 -9 12 28 -3 57 -9 19 -16 22 -24 14 -45
-42 -73 -48 -73 -16 0 16 7 20 32 20 30 0 31 1 16 17 -14 14 -22 15 -43 5 -21
-10 -25 -18 -25 -52 0 -22 5 -40 10 -40 6 0 10 -5 10 -11 0 -8 -5 -8 -15 1 -8
7 -15 18 -15 25 0 8 -6 16 -12 18 -10 4 -10 6 0 6 6 1 12 5 12 10 0 5 -9 7
-19 4 -13 -3 -21 2 -26 16 -3 12 -10 21 -15 21 -4 0 -10 6 -13 13 -3 9 3 12
22 9 21 -3 32 2 44 21 15 23 15 25 -2 20 -10 -3 -22 0 -25 6 -5 8 -17 6 -38
-5 -42 -22 -60 -3 -60 60 0 31 -4 49 -14 53 -8 3 -12 14 -10 26 3 12 5 29 6
37 0 12 3 11 11 -3 6 -10 8 -24 5 -32 -2 -7 2 -16 10 -19 8 -3 14 -12 14 -21
0 -8 5 -15 10 -15 6 0 10 -8 8 -17 -2 -10 4 -19 13 -21 21 -4 34 28 17 40 -8
5 -9 8 -2 8 7 0 14 9 17 20 3 11 1 20 -4 20 -5 0 -9 -6 -9 -14 0 -26 -29 -27
-36 -1 -3 14 -9 23 -13 20 -4 -2 -8 9 -8 25 0 32 26 44 28 13 0 -17 1 -17 7
-1 5 13 11 15 22 8 13 -9 13 -11 0 -21 -13 -8 -12 -10 4 -7 11 2 19 6 18 11
-1 4 -2 16 -2 27 0 11 -3 19 -7 19 -19 -3 -34 2 -29 10 3 4 17 6 31 3 15 -2
25 0 25 7 0 6 -13 14 -30 18 -16 3 -30 10 -30 15 0 5 -5 6 -12 2 -7 -4 -8 -3
-4 4 4 6 13 9 21 5 8 -3 15 0 15 6 0 21 -32 11 -60 -19 -19 -21 -23 -30 -13
-30 8 0 13 -6 10 -12 -2 -7 -11 -12 -21 -10 -10 2 -16 -4 -16 -17 0 -11 -10
-25 -21 -32 -17 -9 -20 -8 -14 3 3 7 0 5 -8 -5 -14 -16 -13 -21 9 -42 28 -28
30 -38 10 -54 -11 -9 -12 -6 -9 13 4 22 2 24 -18 19 -18 -5 -21 -3 -16 11 4
10 1 19 -8 22 -22 9 -18 31 5 37 11 3 20 10 20 16 0 20 -28 12 -48 -14 -27
-34 -32 -32 -32 13 0 25 -3 33 -9 23 -5 -8 -7 -21 -3 -29 4 -12 1 -14 -14 -7
-10 4 -26 7 -35 7 -12 0 -15 5 -11 21 5 21 4 21 -15 5 -26 -24 -31 -23 -36 10
-4 25 -4 25 -6 -5 0 -18 -5 -33 -11 -33 -5 0 -10 4 -10 9 0 5 -9 11 -20 14
-30 8 -24 22 15 37 23 9 31 16 23 21 -7 4 -17 4 -24 -1 -6 -6 -14 -7 -17 -3
-4 3 -7 1 -7 -6 0 -7 -4 -10 -10 -6 -5 3 -7 12 -3 20 3 8 0 15 -6 15 -6 0 -11
-5 -11 -10 0 -7 -6 -7 -18 -1 -14 7 -21 5 -30 -10 -10 -16 -16 -17 -32 -9 -11
6 -20 7 -19 3 3 -18 -2 -33 -10 -33 -15 0 -42 31 -36 41 4 5 1 9 -5 9 -7 0
-10 -6 -7 -12 2 -7 0 -20 -4 -30 -6 -11 -4 -18 6 -22 24 -9 17 -26 -11 -26
-23 0 -26 3 -22 30 3 20 0 30 -9 30 -7 0 -13 -7 -13 -16 0 -8 -4 -12 -10 -9
-13 8 -13 -1 0 -26 9 -16 7 -19 -9 -19 -48 0 -53 10 -21 47 26 30 28 36 16 49
-17 16 -30 19 -21 4 12 -20 -7 -32 -21 -13 -12 16 -13 14 -9 -18 3 -32 1 -36
-17 -35 -22 1 -39 26 -18 26 6 0 8 5 5 10 -4 6 -12 7 -18 3 -7 -3 -4 3 6 14
16 18 16 21 2 27 -10 3 -14 14 -11 30 4 20 1 23 -16 18 -15 -4 -17 -7 -6 -13
10 -7 9 -9 -5 -9 -15 0 -16 -2 -5 -14 7 -8 16 -12 20 -10 4 3 6 -14 5 -36 -1
-45 -4 -46 -33 -25 -12 8 -25 11 -29 7 -4 -4 -4 3 -1 16 5 16 3 22 -7 22 -28
0 -25 25 7 52 18 17 25 28 16 27 -8 0 -24 -10 -34 -22z m6 -94 c-3 -17 2 -24
22 -29 14 -3 23 -10 20 -16 -3 -5 2 -20 10 -33 9 -14 12 -25 7 -25 -5 0 -12 9
-16 19 -3 11 -11 19 -18 17 -7 -1 -9 -1 -4 1 4 3 7 9 7 14 0 14 -36 10 -50 -6
-12 -15 -5 -39 10 -30 5 3 16 -2 25 -12 16 -16 16 -17 -1 -30 -16 -12 -19 -11
-26 7 -8 21 -28 28 -28 10 0 -5 -7 -10 -15 -10 -8 0 -15 3 -15 6 0 3 7 12 15
20 21 21 19 34 -5 34 -23 0 -27 18 -6 26 8 3 12 12 9 20 -3 8 0 14 6 14 6 0
11 6 11 14 0 8 9 13 23 12 18 -1 22 -6 19 -23z m838 18 c0 -6 -5 -13 -10 -16
-6 -4 -7 -12 -4 -18 5 -9 4 -9 -5 -1 -6 6 -9 18 -5 27 7 18 24 23 24 8z m-427
-31 c-3 -10 -11 -25 -19 -31 -17 -14 -17 -9 -4 25 11 30 31 35 23 6z m-63 -21
c0 -5 -4 -9 -10 -9 -5 0 -10 7 -10 16 0 8 5 12 10 9 6 -3 10 -10 10 -16z
m-220 -42 c0 -3 -9 -7 -21 -10 -24 -6 -39 21 -19 33 12 7 40 -9 40 -23z m187
27 c-3 -3 -12 -4 -19 -1 -8 3 -5 6 6 6 11 1 17 -2 13 -5z m223 -24 c0 -5 -7
-7 -15 -4 -8 4 -12 10 -9 15 6 11 24 2 24 -11z m-623 -30 c0 -17 -4 -30 -9
-30 -5 0 -8 -6 -6 -13 3 -14 -3 -17 -29 -17 -12 0 -9 7 13 26 16 15 22 24 13
21 -12 -4 -14 1 -11 23 5 37 29 29 29 -10z m697 16 c-3 -8 -15 -11 -31 -8 -24
5 -25 6 -9 18 21 15 47 8 40 -10z m60 -27 c-3 -5 -14 -9 -25 -9 -10 0 -19 4
-19 9 0 5 11 9 25 9 13 0 22 -4 19 -9z m106 -19 c0 -5 -2 -10 -4 -10 -3 0 -8
5 -11 10 -3 6 -1 10 4 10 6 0 11 -4 11 -10z m-845 -45 c-16 -13 -32 -21 -35
-18 -3 3 1 8 8 10 6 3 12 11 12 19 0 8 10 14 23 14 21 -1 21 -2 -8 -25z m835
16 c0 -6 -4 -13 -10 -16 -5 -3 -10 1 -10 9 0 9 5 16 10 16 6 0 10 -4 10 -9z
m106 -98 c-10 -10 -19 5 -10 18 6 11 8 11 12 0 2 -7 1 -15 -2 -18z m-1116 -83
c0 -5 -5 -10 -11 -10 -5 0 -7 5 -4 10 3 6 8 10 11 10 2 0 4 -4 4 -10z m-107
-89 c14 -28 13 -41 -4 -41 -4 0 -10 11 -13 25 -4 14 -12 25 -19 25 -8 0 -7 4
3 10 8 5 16 10 17 10 1 0 8 -13 16 -29z m1264 -53 c-3 -8 -6 -5 -6 6 -1 11 2
17 5 13 3 -3 4 -12 1 -19z m53 -8 c0 -5 -4 -10 -9 -10 -6 0 -13 5 -16 10 -3 6
1 10 9 10 9 0 16 -4 16 -10z m-1305 -70 c-3 -5 -10 -10 -16 -10 -5 0 -9 5 -9
10 0 6 7 10 16 10 8 0 12 -4 9 -10z m-68 -74 c-4 -10 -1 -13 9 -9 10 4 14 -2
13 -18 0 -13 -3 -18 -6 -11 -2 6 -11 12 -19 12 -14 0 -19 21 -7 33 11 11 15 8
10 -7z m44 -62 c-9 -28 -9 -29 -10 -3 -1 14 2 29 6 32 11 12 13 2 4 -29z m-9
-176 c-7 -7 -12 -8 -12 -2 0 14 12 26 19 19 2 -3 -1 -11 -7 -17z m31 -45 c3
-16 0 -31 -6 -35 -20 -13 -30 -9 -23 8 3 9 6 24 6 35 0 29 17 23 23 -8z m283
-409 c-5 -14 -4 -15 8 -5 10 9 16 9 21 1 13 -21 -4 -40 -35 -40 -34 0 -38 11
-12 39 22 24 26 25 18 5z m501 -20 c-3 -3 -12 -4 -19 -1 -8 3 -5 6 6 6 11 1
17 -2 13 -5z m-112 -64 c3 -5 1 -10 -4 -10 -6 0 -11 5 -11 10 0 6 2 10 4 10 3
0 8 -4 11 -10z"/>
<path d="M1339 2653 c-8 -44 -6 -53 8 -41 11 8 12 13 4 16 -9 3 -9 7 0 18 8
10 8 14 0 14 -6 0 -12 -3 -12 -7z"/>
<path d="M1973 2755 c0 -8 4 -12 9 -9 4 3 8 9 8 15 0 5 -4 9 -8 9 -5 0 -9 -7
-9 -15z"/>
<path d="M2786 2761 c-2 -3 2 -11 9 -18 10 -9 14 -8 18 6 4 16 -19 26 -27 12z"/>
<path d="M1154 2749 c-3 -6 -2 -15 3 -20 5 -5 9 -1 9 11 0 23 -2 24 -12 9z"/>
<path d="M1730 2745 c0 -9 6 -12 15 -9 8 4 15 7 15 9 0 2 -7 5 -15 9 -9 3 -15
0 -15 -9z"/>
<path d="M2220 2750 c0 -5 4 -10 9 -10 6 0 13 5 16 10 3 6 -1 10 -9 10 -9 0
-16 -4 -16 -10z"/>
<path d="M950 2734 c0 -9 5 -14 12 -12 18 6 21 28 4 28 -9 0 -16 -7 -16 -16z"/>
<path d="M1199 2732 c-9 -9 -14 -23 -12 -29 6 -16 23 -17 23 -1 0 6 7 20 17
30 22 24 -5 24 -28 0z"/>
<path d="M1560 2741 c0 -13 23 -28 44 -28 16 0 15 3 -5 18 -26 20 -39 24 -39
10z"/>
<path d="M1700 2742 c0 -4 -9 -18 -20 -30 -17 -18 -18 -22 -5 -22 8 0 15 5 15
11 0 7 7 17 17 24 11 8 13 14 5 19 -7 4 -12 3 -12 -2z"/>
<path d="M2760 2739 c0 -6 -7 -8 -16 -5 -12 5 -15 2 -10 -10 5 -12 2 -15 -11
-10 -14 6 -15 5 -6 -5 9 -9 16 -9 26 -1 8 7 17 9 20 5 4 -3 7 3 7 15 0 12 -2
22 -5 22 -3 0 -5 -5 -5 -11z"/>
<path d="M1840 2729 c0 -5 5 -7 10 -4 6 3 10 8 10 11 0 2 -4 4 -10 4 -5 0 -10
-5 -10 -11z"/>
<path d="M900 2722 c0 -6 -3 -18 -6 -27 -4 -10 -2 -15 6 -13 16 4 21 -61 7
-82 -7 -10 -5 -9 8 2 24 22 26 77 3 107 -10 13 -18 19 -18 13z"/>
<path d="M1635 2720 c-3 -5 -2 -10 4 -10 5 0 13 5 16 10 3 6 2 10 -4 10 -5 0
-13 -4 -16 -10z"/>
<path d="M2280 2720 c0 -5 5 -10 10 -10 6 0 10 5 10 10 0 6 -4 10 -10 10 -5 0
-10 -4 -10 -10z"/>
<path d="M2851 2714 c0 -11 3 -14 6 -6 3 7 2 16 -1 19 -3 4 -6 -2 -5 -13z"/>
<path d="M2870 2714 c0 -8 5 -12 10 -9 6 3 10 10 10 16 0 5 -4 9 -10 9 -5 0
-10 -7 -10 -16z"/>
<path d="M1128 2713 c7 -3 16 -2 19 1 4 3 -2 6 -13 5 -11 0 -14 -3 -6 -6z"/>
<path d="M1275 2710 c4 -6 11 -8 16 -5 14 9 11 15 -7 15 -8 0 -12 -5 -9 -10z"/>
<path d="M1530 2716 c0 -2 9 -6 20 -9 11 -3 20 -1 20 4 0 5 -9 9 -20 9 -11 0
-20 -2 -20 -4z"/>
<path d="M1720 2710 c0 -5 5 -10 10 -10 6 0 10 5 10 10 0 6 -4 10 -10 10 -5 0
-10 -4 -10 -10z"/>
<path d="M1840 2705 c-14 -8 -20 -14 -14 -15 5 0 19 7 30 15 24 18 16 19 -16
0z"/>
<path d="M2797 2713 c-9 -9 -9 -43 1 -43 4 0 8 11 8 25 2 27 1 29 -9 18z"/>
<path d="M1880 2701 c0 -6 5 -11 11 -11 6 0 9 -9 6 -20 -4 -14 0 -20 11 -20
11 0 18 9 18 25 1 14 -2 25 -6 25 -5 0 -15 3 -24 6 -9 3 -16 1 -16 -5z"/>
<path d="M2127 2685 c-8 -8 -17 -11 -21 -8 -3 4 -6 -1 -6 -10 0 -25 15 -21 34
8 18 28 15 33 -7 10z"/>
<path d="M2766 2685 c4 -8 8 -15 10 -15 2 0 4 7 4 15 0 8 -4 15 -10 15 -5 0
-7 -7 -4 -15z"/>
<path d="M780 2675 c0 -10 7 -15 18 -13 21 4 19 22 -2 26 -10 2 -16 -3 -16
-13z"/>
<path d="M2002 2678 c-7 -7 -12 -16 -12 -21 0 -5 7 -1 16 8 9 9 14 18 12 20
-2 3 -10 -1 -16 -7z"/>
<path d="M2316 2673 c-6 -14 -5 -15 5 -6 7 7 10 15 7 18 -3 3 -9 -2 -12 -12z"/>
<path d="M1957 2673 c-10 -9 -9 -51 1 -57 5 -3 9 10 9 29 0 38 0 38 -10 28z"/>
<path d="M2374 2671 c4 -5 1 -12 -4 -14 -6 -3 -5 -4 2 -3 15 3 23 26 8 26 -6
0 -9 -4 -6 -9z"/>
<path d="M870 2660 c0 -5 5 -10 10 -10 6 0 10 5 10 10 0 6 -4 10 -10 10 -5 0
-10 -4 -10 -10z"/>
<path d="M2040 2659 c0 -5 5 -7 10 -4 6 3 10 8 10 11 0 2 -4 4 -10 4 -5 0 -10
-5 -10 -11z"/>
<path d="M1200 2651 c0 -5 9 -7 20 -4 11 3 20 7 20 9 0 2 -9 4 -20 4 -11 0
-20 -4 -20 -9z"/>
<path d="M1044 2636 c-6 -7 -15 -22 -18 -34 -4 -12 -11 -22 -16 -22 -4 0 -10
-7 -13 -14 -11 -28 21 -5 36 25 11 24 16 27 21 14 3 -9 2 -24 -3 -33 -7 -14
-4 -17 15 -18 23 -2 24 -1 7 12 -17 13 -17 13 2 14 17 0 17 2 5 10 -10 6 -11
10 -2 10 6 0 12 7 12 16 0 9 5 12 12 8 7 -4 8 -3 4 4 -10 17 -26 15 -26 -3 0
-8 -5 -15 -11 -15 -6 0 -8 9 -4 20 7 22 -4 26 -21 6z"/>
<path d="M811 2626 c-15 -17 -41 -106 -32 -106 11 0 30 40 33 70 2 14 9 24 15
23 6 -1 14 4 17 12 7 19 -18 20 -33 1z"/>
<path d="M2090 2631 c0 -6 4 -13 10 -16 6 -3 7 1 4 9 -7 18 -14 21 -14 7z"/>
<path d="M714 2611 c17 -19 7 -39 -14 -26 -5 3 -10 1 -10 -4 0 -6 5 -11 11
-11 5 0 7 -4 4 -10 -3 -5 -1 -10 4 -10 6 0 11 7 11 15 0 8 6 15 14 15 9 0 12
7 9 20 -3 11 -9 17 -14 14 -5 -3 -9 0 -9 5 0 6 -5 11 -12 11 -6 0 -4 -8 6 -19z"/>
<path d="M1180 2626 c0 -9 30 -14 35 -6 4 6 -3 10 -14 10 -12 0 -21 -2 -21 -4z"/>
<path d="M2323 2598 c-13 -6 -23 -15 -23 -20 0 -4 -6 -8 -14 -8 -7 0 -16 -9
-19 -21 -5 -20 -5 -20 14 -3 11 10 19 12 19 6 0 -7 4 -12 10 -12 5 0 7 7 4 15
-4 8 1 17 9 21 12 4 35 37 24 33 -1 0 -12 -5 -24 -11z"/>
<path d="M2370 2595 c-10 -12 -9 -15 4 -15 11 0 15 -5 10 -12 -4 -8 -2 -8 7 1
11 10 11 15 1 18 -6 3 -10 9 -6 14 9 15 -2 10 -16 -6z"/>
<path d="M830 2585 c0 -13 4 -14 23 -4 33 17 33 19 4 19 -18 0 -27 -5 -27 -15z"/>
<path d="M1187 2593 c-4 -3 -7 -11 -7 -17 0 -6 5 -5 12 2 6 6 9 14 7 17 -3 3
-9 2 -12 -2z"/>
<path d="M2440 2585 c-20 -25 -6 -31 17 -7 14 14 18 22 9 22 -8 0 -19 -7 -26
-15z"/>
<path d="M851 2551 c-26 -22 -16 -33 16 -16 13 7 19 16 14 23 -5 9 -13 7 -30
-7z"/>
<path d="M993 2520 c-21 -19 -28 -32 -22 -41 6 -10 10 -9 15 6 12 32 37 57 45
44 4 -7 9 -8 13 -1 14 23 -22 18 -51 -8z"/>
<path d="M2480 2530 c-13 -8 -13 -10 2 -10 9 0 20 5 23 10 8 13 -5 13 -25 0z"/>
<path d="M735 2520 c-3 -5 -1 -10 4 -10 6 0 11 5 11 10 0 6 -2 10 -4 10 -3 0
-8 -4 -11 -10z"/>
<path d="M800 2515 c0 -9 5 -15 11 -13 6 2 11 8 11 13 0 5 -5 11 -11 13 -6 2
-11 -4 -11 -13z"/>
<path d="M890 2520 c-8 -5 -17 -7 -21 -4 -4 2 -5 -5 -2 -15 5 -20 5 -20 26 -1
22 21 20 34 -3 20z"/>
<path d="M1107 2516 c-5 -12 -3 -25 6 -34 12 -12 15 -11 20 2 4 9 2 16 -3 16
-5 0 -10 8 -12 18 -3 15 -4 15 -11 -2z"/>
<path d="M656 2492 c16 -14 19 -23 12 -41 -5 -13 -6 -26 -3 -29 3 -3 5 0 5 6
0 7 6 12 14 12 11 0 12 7 7 28 -5 15 -13 26 -20 25 -6 -2 -11 2 -11 7 0 6 -6
10 -12 10 -7 -1 -4 -8 8 -18z"/>
<path d="M1060 2480 c-7 -14 -7 -20 0 -20 5 0 10 5 10 11 0 5 5 7 10 4 6 -3
10 1 10 9 0 22 -17 20 -30 -4z"/>
<path d="M2463 2491 c1 -5 -7 -17 -18 -25 -13 -10 -15 -15 -6 -16 12 0 51 36
51 47 0 1 -7 3 -15 3 -8 0 -14 -4 -12 -9z"/>
<path d="M770 2481 c0 -5 5 -13 10 -16 6 -3 10 -2 10 4 0 5 -4 13 -10 16 -5 3
-10 2 -10 -4z"/>
<path d="M801 2474 c0 -11 3 -14 6 -6 3 7 2 16 -1 19 -3 4 -6 -2 -5 -13z"/>
<path d="M2259 2470 c22 -19 41 -19 41 0 0 4 -9 6 -20 3 -11 -3 -20 0 -20 6 0
6 -6 11 -12 11 -7 -1 -2 -9 11 -20z"/>
<path d="M726 2448 c4 -33 2 -38 -16 -38 -11 0 -20 -4 -20 -8 0 -5 14 -7 30
-4 24 3 30 9 30 28 0 13 -4 24 -9 24 -5 0 -12 8 -15 18 -3 9 -3 0 0 -20z"/>
<path d="M910 2470 c-13 -8 -13 -10 2 -10 9 0 20 5 23 10 8 13 -5 13 -25 0z"/>
<path d="M2355 2470 c3 -6 1 -10 -5 -10 -6 0 -8 -5 -5 -10 3 -6 -1 -13 -9 -16
-9 -3 -14 -10 -11 -14 3 -5 -3 -13 -12 -19 -16 -9 -16 -12 -3 -20 8 -6 15 -9
15 -8 1 1 13 23 28 48 23 40 24 48 11 53 -8 3 -12 2 -9 -4z"/>
<path d="M2180 2450 c0 -11 7 -20 15 -20 8 0 15 6 15 14 0 8 -7 16 -15 20 -10
4 -15 -1 -15 -14z"/>
<path d="M2315 2459 c-4 -6 -5 -12 -2 -15 2 -3 7 2 10 11 7 17 1 20 -8 4z"/>
<path d="M761 2444 c0 -11 3 -14 6 -6 3 7 2 16 -1 19 -3 4 -6 -2 -5 -13z"/>
<path d="M860 2449 c0 -5 5 -7 10 -4 6 3 10 8 10 11 0 2 -4 4 -10 4 -5 0 -10
-5 -10 -11z"/>
<path d="M1080 2455 c-1 -5 -2 -14 -1 -19 1 -5 -5 -6 -14 -3 -9 4 -15 1 -15
-9 0 -11 6 -14 16 -10 8 3 12 2 9 -4 -3 -6 -7 -28 -7 -50 0 -22 -4 -37 -9 -34
-5 3 -7 9 -4 14 3 5 1 11 -5 15 -6 3 -10 -3 -10 -15 0 -12 -5 -31 -11 -42 -9
-16 -8 -19 3 -14 7 3 20 8 28 12 21 7 41 52 26 57 -6 3 0 9 14 15 18 8 20 11
8 11 -10 1 -18 6 -18 11 0 6 3 9 8 9 26 -4 34 1 22 16 -7 8 -16 13 -20 10 -5
-3 -11 5 -13 17 -2 13 -5 19 -7 13z"/>
<path d="M914 2429 c-3 -5 6 -9 20 -9 31 0 34 6 6 13 -11 3 -23 1 -26 -4z"/>
<path d="M2415 2430 c-4 -6 -10 -8 -15 -5 -4 3 -13 -1 -19 -9 -9 -11 -8 -15 5
-20 9 -4 17 -5 18 -4 1 2 7 13 14 26 12 21 9 32 -3 12z"/>
<path d="M800 2410 c0 -6 7 -10 15 -10 8 0 15 2 15 4 0 2 -7 6 -15 10 -8 3
-15 1 -15 -4z"/>
<path d="M2456 2397 c5 -17 3 -19 -15 -14 -11 3 -21 2 -21 -3 0 -4 9 -10 19
-13 15 -4 22 2 29 22 8 22 7 28 -4 28 -10 0 -12 -7 -8 -20z"/>
<path d="M859 2402 c8 -6 11 -17 8 -26 -4 -9 -2 -16 4 -16 16 0 6 43 -11 47
-12 4 -13 3 -1 -5z"/>
<path d="M620 2380 c0 -11 4 -20 9 -20 6 0 9 9 8 20 -1 11 -5 20 -9 20 -4 0
-8 -9 -8 -20z"/>
<path d="M800 2358 c-25 -42 -25 -51 0 -36 11 7 15 15 9 17 -6 2 -1 14 12 27
12 13 17 24 11 24 -7 0 -21 -15 -32 -32z"/>
<path d="M911 2374 c0 -11 3 -14 6 -6 3 7 2 16 -1 19 -3 4 -6 -2 -5 -13z"/>
<path d="M2370 2375 c0 -9 5 -15 11 -13 6 2 11 8 11 13 0 5 -5 11 -11 13 -6 2
-11 -4 -11 -13z"/>
<path d="M659 2363 c-10 -11 -10 -14 -1 -9 17 10 38 -4 21 -15 -10 -6 -4 -9
17 -9 20 0 34 6 38 16 8 21 -4 40 -15 23 -6 -11 -11 -11 -21 -1 -16 16 -23 15
-39 -5z"/>
<path d="M935 2370 c-3 -5 1 -10 10 -10 9 0 13 5 10 10 -3 6 -8 10 -10 10 -2
0 -7 -4 -10 -10z"/>
<path d="M2255 2360 c-3 -5 3 -10 14 -10 12 0 21 5 21 10 0 6 -6 10 -14 10 -8
0 -18 -4 -21 -10z"/>
<path d="M583 2353 c-7 -2 -9 -11 -6 -19 4 -11 9 -12 19 -3 7 6 18 8 24 4 5
-3 10 -4 10 -1 0 9 -35 23 -47 19z"/>
<path d="M2545 2349 c-10 -14 -1 -21 19 -13 9 3 13 10 10 15 -7 12 -21 11 -29
-2z"/>
<path d="M2605 2349 c-4 -6 -5 -12 -2 -15 2 -3 7 2 10 11 7 17 1 20 -8 4z"/>
<path d="M2440 2329 c0 -5 5 -7 10 -4 6 3 10 8 10 11 0 2 -4 4 -10 4 -5 0 -10
-5 -10 -11z"/>
<path d="M2504 2319 c0 -10 4 -19 8 -19 4 0 8 6 8 14 0 8 -4 17 -8 20 -4 2 -8
-4 -8 -15z"/>
<path d="M825 2320 c-3 -5 -1 -10 4 -10 6 0 11 5 11 10 0 6 -2 10 -4 10 -3 0
-8 -4 -11 -10z"/>
<path d="M2565 2320 c-3 -5 -1 -10 4 -10 6 0 11 5 11 10 0 6 -2 10 -4 10 -3 0
-8 -4 -11 -10z"/>
<path d="M535 2300 c-3 -5 -1 -10 4 -10 6 0 11 5 11 10 0 6 -2 10 -4 10 -3 0
-8 -4 -11 -10z"/>
<path d="M737 2303 c-10 -15 24 -26 37 -12 8 9 7 10 -6 6 -9 -3 -18 -1 -21 6
-2 8 -5 8 -10 0z"/>
<path d="M2458 2280 c-7 -43 -1 -51 18 -26 8 11 10 22 5 25 -4 3 -10 13 -13
21 -3 8 -7 -1 -10 -20z"/>
<path d="M2622 2298 c-19 -19 -15 -49 5 -41 11 4 13 8 5 11 -10 3 -10 7 -1 18
15 18 7 28 -9 12z"/>
<path d="M2675 2297 c-9 -10 -11 -52 -5 -82 1 -5 2 -13 1 -17 -1 -10 3 -10 23
-2 13 5 14 9 5 21 -15 18 -23 77 -9 68 6 -3 10 1 10 9 0 19 -11 20 -25 3z"/>
<path d="M648 2293 c7 -3 16 -2 19 1 4 3 -2 6 -13 5 -11 0 -14 -3 -6 -6z"/>
<path d="M866 2269 c-3 -17 -3 -35 0 -40 4 -8 -17 -14 -38 -10 -5 0 -8 -10 -8
-23 0 -13 -4 -26 -10 -28 -13 -4 -21 -76 -9 -84 6 -3 10 0 9 7 -3 21 11 59 22
59 5 0 6 4 3 10 -9 14 13 50 31 50 11 0 13 7 8 26 -5 18 -3 25 3 21 7 -4 10 3
9 18 -2 35 -12 31 -20 -6z"/>
<path d="M2545 2290 c3 -5 1 -10 -4 -10 -6 0 -11 -4 -11 -9 0 -10 19 -9 38 2
19 12 14 27 -9 27 -11 0 -17 -4 -14 -10z"/>
<path d="M569 2269 c-17 -17 -19 -23 -8 -30 9 -5 15 -4 18 4 2 7 10 17 18 24
9 7 10 13 4 17 -6 4 -20 -3 -32 -15z"/>
<path d="M786 2274 c-5 -14 -4 -15 9 -4 17 14 19 20 6 20 -5 0 -12 -7 -15 -16z"/>
<path d="M820 2279 c0 -12 -21 -35 -33 -36 -23 -4 -28 -11 -5 -9 30 1 82 56
54 56 -9 0 -16 -5 -16 -11z"/>
<path d="M1062 2278 c3 -7 13 -15 24 -17 16 -3 17 -1 5 13 -16 19 -34 21 -29
4z"/>
<path d="M666 2266 c3 -8 13 -13 22 -12 24 4 21 18 -5 22 -16 3 -21 0 -17 -10z"/>
<path d="M530 2255 c-7 -9 -10 -18 -7 -21 3 -3 10 4 17 15 13 25 8 27 -10 6z"/>
<path d="M926 2251 c-5 -13 -4 -27 2 -33 14 -14 20 2 12 32 l-6 25 -8 -24z"/>
<path d="M2390 2254 c0 -11 -6 -15 -20 -11 -12 3 -20 0 -20 -8 0 -7 14 -15 30
-17 26 -4 30 -1 30 18 0 13 -4 26 -10 29 -5 3 -10 -1 -10 -11z"/>
<path d="M603 2221 c-11 -18 -8 -31 8 -31 5 0 6 7 3 15 -4 8 -1 15 5 15 6 0
11 -4 11 -10 0 -5 9 -19 20 -30 17 -17 18 -23 8 -40 -7 -10 -15 -15 -18 -10
-3 5 -18 11 -33 14 -16 3 -25 1 -22 -5 3 -5 2 -16 -3 -26 -7 -11 -6 -23 2 -36
8 -15 8 -21 -1 -24 -7 -3 -13 -8 -13 -13 0 -4 11 -3 25 3 14 7 23 18 20 25 -3
7 -1 10 5 7 10 -6 52 34 46 44 -3 4 2 17 9 31 12 23 11 27 -22 58 -20 17 -36
32 -37 32 -1 0 -7 -9 -13 -19z m25 -114 c2 -11 -3 -17 -16 -17 -15 0 -19 5
-15 20 6 24 26 21 31 -3z"/>
<path d="M665 2230 c-3 -5 -1 -10 4 -10 6 0 11 5 11 10 0 6 -2 10 -4 10 -3 0
-8 -4 -11 -10z"/>
<path d="M700 2230 c0 -5 5 -10 10 -10 6 0 10 5 10 10 0 6 -4 10 -10 10 -5 0
-10 -4 -10 -10z"/>
<path d="M2490 2225 c-7 -8 -9 -15 -5 -15 4 0 2 -7 -5 -15 -10 -12 -10 -15 3
-15 8 0 18 12 21 26 8 32 3 40 -14 19z"/>
<path d="M2420 2199 c0 -17 3 -19 13 -10 8 6 17 8 20 4 4 -3 7 -2 7 4 0 9 -22
23 -36 23 -2 0 -4 -10 -4 -21z"/>
<path d="M2584 2209 c-3 -5 6 -9 20 -9 32 0 41 15 10 16 -13 1 -27 -2 -30 -7z"/>
<path d="M383 2193 c-3 -10 -15 -27 -26 -37 -19 -19 -20 -19 -33 -1 -8 10 -14
15 -14 9 0 -5 -4 -2 -10 6 -5 8 -12 12 -15 9 -9 -9 6 -40 16 -33 5 3 16 -2 24
-10 9 -8 21 -14 28 -12 7 1 9 1 5 -1 -17 -10 -7 -33 15 -33 16 0 18 3 8 9 -11
7 -10 11 5 19 18 10 18 11 2 17 -10 4 -15 11 -12 16 3 5 10 6 16 3 7 -5 9 -1
5 9 -3 9 -1 18 6 21 9 3 8 5 -1 5 -7 1 -10 6 -7 11 3 6 4 10 0 10 -3 0 -8 -8
-12 -17z"/>
<path d="M470 2203 c-39 -7 -57 -29 -52 -63 3 -18 10 -30 19 -30 9 0 13 -6 9
-15 -3 -10 1 -15 12 -15 26 0 43 15 45 38 1 12 6 22 11 22 6 0 5 5 -1 11 -8 8
-8 20 -3 35 10 25 9 26 -40 17z m21 -32 c-8 -5 -11 -17 -7 -29 4 -13 1 -22 -9
-26 -8 -3 -15 -1 -15 4 0 6 6 10 13 10 6 1 -3 7 -22 16 -27 11 -32 17 -22 27
9 9 14 9 21 -3 8 -13 11 -13 27 2 9 10 19 15 22 12 3 -3 -1 -9 -8 -13z"/>
<path d="M2380 2183 c0 -21 2 -24 15 -13 8 7 15 16 15 20 0 4 -7 10 -15 14
-11 4 -15 -2 -15 -21z"/>
<path d="M855 2190 c3 -5 8 -10 11 -10 2 0 4 5 4 10 0 6 -5 10 -11 10 -5 0 -7
-4 -4 -10z"/>
<path d="M2540 2190 c0 -5 4 -10 9 -10 6 0 13 5 16 10 3 6 -1 10 -9 10 -9 0
-16 -4 -16 -10z"/>
<path d="M736 2172 c-9 -15 23 -24 42 -11 15 9 15 10 -2 4 -11 -3 -23 -1 -26
6 -5 7 -10 8 -14 1z"/>
<path d="M2510 2169 c0 -5 5 -7 10 -4 6 3 10 8 10 11 0 2 -4 4 -10 4 -5 0 -10
-5 -10 -11z"/>
<path d="M2645 2170 c-3 -6 1 -7 9 -4 18 7 21 14 7 14 -6 0 -13 -4 -16 -10z"/>
<path d="M703 2163 c-15 -5 -17 -23 -4 -23 5 0 11 7 15 15 3 8 4 15 3 14 -1 0
-8 -3 -14 -6z"/>
<path d="M865 2150 c-16 -7 -17 -9 -3 -9 9 -1 20 4 23 9 7 11 7 11 -20 0z"/>
<path d="M545 2130 c3 -5 8 -10 11 -10 2 0 4 5 4 10 0 6 -5 10 -11 10 -5 0 -7
-4 -4 -10z"/>
<path d="M716 2124 c-5 -14 -4 -15 8 -5 11 9 15 8 20 -4 6 -17 36 -21 36 -4 0
6 -6 9 -14 6 -8 -3 -17 1 -20 9 -7 19 -22 18 -30 -2z"/>
<path d="M2409 2138 c0 -2 -3 -15 -5 -29 -4 -23 -2 -26 21 -21 30 5 33 27 5
42 -11 6 -20 9 -21 8z m31 -22 c0 -3 -4 -8 -10 -11 -5 -3 -10 -1 -10 4 0 6 5
11 10 11 6 0 10 -2 10 -4z"/>
<path d="M2577 2111 c-7 -19 -17 -29 -25 -26 -8 3 -10 0 -5 -8 4 -6 6 -21 5
-32 -1 -11 7 1 19 27 12 26 25 45 30 42 5 -3 9 -1 9 5 0 25 -22 20 -33 -8z"/>
<path d="M2475 2120 c-3 -5 1 -10 9 -10 9 0 16 5 16 10 0 6 -4 10 -9 10 -6 0
-13 -4 -16 -10z"/>
<path d="M2670 2115 c-19 -22 -8 -25 13 -3 9 10 13 18 8 18 -5 0 -14 -7 -21
-15z"/>
<path d="M840 2100 c0 -11 -5 -20 -11 -20 -8 0 -8 -4 0 -14 9 -11 7 -15 -9
-19 -28 -7 -25 -22 6 -25 19 -1 25 2 21 12 -3 7 0 19 6 25 8 8 8 11 -2 11 -7
0 -9 5 -4 13 11 18 12 37 2 37 -5 0 -9 -9 -9 -20z"/>
<path d="M230 2089 c0 -5 5 -7 10 -4 6 3 10 8 10 11 0 2 -4 4 -10 4 -5 0 -10
-5 -10 -11z"/>
<path d="M695 2090 c4 -6 11 -8 16 -5 14 9 11 15 -7 15 -8 0 -12 -5 -9 -10z"/>
<path d="M2485 2086 c-19 -15 -19 -15 7 -16 15 0 30 5 34 12 4 6 3 8 -4 4 -5
-3 -12 -1 -14 4 -2 7 -11 5 -23 -4z"/>
<path d="M402 2082 l-22 -3 20 -29 c24 -34 25 -40 5 -40 -8 0 -15 -5 -15 -11
0 -18 44 16 49 36 2 13 -1 16 -13 12 -9 -4 -16 -2 -16 2 0 5 5 11 12 13 20 7
4 23 -20 20z"/>
<path d="M725 2080 c-3 -5 1 -10 10 -10 9 0 13 5 10 10 -3 6 -8 10 -10 10 -2
0 -7 -4 -10 -10z"/>
<path d="M2710 2081 c0 -5 5 -13 10 -16 6 -3 10 -2 10 4 0 5 -4 13 -10 16 -5
3 -10 2 -10 -4z"/>
<path d="M467 2049 c3 -9 -8 -27 -24 -40 -21 -18 -28 -32 -26 -56 1 -18 -2
-33 -5 -33 -12 0 -33 40 -27 50 4 6 1 10 -5 10 -6 0 -9 4 -6 9 3 5 -1 11 -9
15 -17 6 -21 -9 -5 -19 6 -3 8 -16 5 -28 -8 -31 34 -50 76 -35 16 5 36 7 44 4
11 -4 15 2 15 24 0 29 -15 41 -22 18 -5 -14 -48 -21 -48 -8 0 6 8 13 18 16 9
3 26 10 37 16 14 8 20 8 23 -1 5 -14 22 -15 22 -1 0 6 -11 15 -25 20 -32 12
-32 21 1 41 l25 16 -34 -1 c-26 -1 -33 -5 -30 -17z"/>
<path d="M2423 2053 c9 -9 20 -13 24 -9 4 4 1 11 -7 16 -25 16 -35 11 -17 -7z"/>
<path d="M238 2054 c-9 -13 -19 -68 -11 -61 3 4 14 2 23 -3 13 -7 20 -6 24 5
3 9 0 15 -9 15 -8 0 -15 12 -17 28 -2 15 -6 22 -10 16z"/>
<path d="M317 2043 c5 -12 2 -15 -10 -10 -19 7 -22 -4 -6 -20 13 -13 42 -6 33
8 -3 5 2 6 10 3 23 -9 20 13 -3 26 -27 14 -31 13 -24 -7z"/>
<path d="M641 2044 c0 -11 3 -14 6 -6 3 7 2 16 -1 19 -3 4 -6 -2 -5 -13z"/>
<path d="M700 2039 c0 -14 7 -19 26 -19 14 0 23 -4 19 -10 -3 -5 3 -10 14 -10
11 0 32 -11 46 -25 25 -26 33 -41 15 -30 -5 3 -10 0 -11 -7 0 -7 -4 -4 -9 7
-9 20 -9 20 -9 0 -1 -12 4 -26 11 -33 8 -8 8 -12 1 -12 -12 0 -28 29 -24 44 1
5 -5 4 -14 -4 -14 -11 -14 -14 1 -25 12 -8 14 -18 9 -35 -5 -16 -9 -19 -15
-10 -6 10 -12 7 -26 -9 -10 -11 -27 -21 -37 -21 -10 0 -15 -5 -12 -10 4 -6 12
-7 18 -3 7 4 4 -5 -6 -20 -9 -15 -15 -27 -12 -27 3 0 1 -9 -5 -21 -7 -11 -19
-19 -30 -17 -11 2 -18 -1 -17 -7 1 -5 12 -10 25 -10 12 1 22 -5 22 -13 0 -7
-4 -11 -9 -8 -4 3 -17 -4 -27 -15 l-18 -20 -12 23 c-11 20 -13 21 -19 6 -4
-10 1 -24 14 -37 18 -18 24 -19 48 -8 21 9 29 20 31 46 4 36 22 61 43 61 9 0
9 3 -2 13 -8 6 -12 11 -10 10 2 -1 12 9 23 22 11 14 24 23 29 20 5 -4 9 3 9
15 0 11 9 28 20 37 11 10 20 22 20 28 1 15 36 55 50 55 6 0 8 -4 5 -10 -3 -5
-1 -10 4 -10 15 0 14 19 -3 36 -16 16 -40 19 -31 4 3 -5 1 -10 -5 -10 -6 0
-13 7 -17 16 -4 12 -8 12 -13 4 -5 -9 -10 -6 -15 9 -4 13 -13 20 -23 19 -9 -2
-16 2 -15 9 2 7 -4 10 -12 7 -8 -4 -15 -2 -15 4 0 6 6 12 13 15 6 2 0 4 -15 4
-21 0 -28 -4 -28 -18z m55 -209 c-10 -11 -22 -17 -26 -14 -15 9 -10 22 9 27
33 9 35 7 17 -13z"/>
<path d="M2460 2045 c0 -8 4 -15 9 -15 13 0 24 -37 15 -52 -5 -8 -10 -4 -15
10 -5 12 -14 22 -21 21 -10 0 -10 -2 0 -6 23 -9 12 -23 -13 -17 -15 4 -25 2
-25 -5 0 -6 5 -11 11 -11 12 0 38 -29 39 -42 0 -4 -10 -9 -22 -11 -20 -4 -19
-4 5 -6 15 0 27 4 27 9 0 6 12 10 28 11 l27 0 -25 10 c-21 9 -23 12 -10 22 18
15 19 44 2 75 -15 25 -32 29 -32 7z"/>
<path d="M675 2042 c-15 -11 -17 -52 -2 -46 9 3 22 55 13 54 0 0 -5 -4 -11 -8z"/>
<path d="M2666 2035 c-8 -22 -8 -22 8 -22 7 0 13 6 12 13 -3 22 -13 26 -20 9z"/>
<path d="M2410 2030 c0 -5 5 -10 10 -10 6 0 10 5 10 10 0 6 -4 10 -10 10 -5 0
-10 -4 -10 -10z"/>
<path d="M540 2016 c0 -8 4 -17 9 -20 5 -4 7 3 4 14 -6 23 -13 26 -13 6z"/>
<path d="M2370 2020 c0 -5 5 -10 10 -10 6 0 10 5 10 10 0 6 -4 10 -10 10 -5 0
-10 -4 -10 -10z"/>
<path d="M2627 2006 c-9 -7 -17 -19 -17 -25 0 -7 -4 -9 -10 -6 -6 3 -7 -1 -4
-9 7 -18 24 -11 24 9 0 8 8 18 17 24 10 5 16 12 13 14 -3 3 -13 0 -23 -7z"/>
<path d="M615 1945 c0 -53 -3 -65 -15 -62 -8 2 -14 8 -13 15 2 6 -4 9 -12 6
-8 -4 -15 -1 -15 6 0 6 -4 9 -10 5 -12 -8 -1 -35 13 -32 7 1 11 -6 9 -15 -4
-24 3 -23 54 10 48 29 58 47 21 33 -22 -9 -23 -7 -19 16 3 18 7 21 13 11 5 -8
7 3 5 27 -2 24 -9 41 -17 43 -11 2 -14 -12 -14 -63z"/>
<path d="M710 1989 c7 -11 14 -19 16 -16 7 7 -7 37 -17 37 -6 0 -5 -9 1 -21z"/>
<path d="M2350 1996 c0 -2 7 -7 16 -10 8 -3 12 -2 9 4 -6 10 -25 14 -25 6z"/>
<path d="M2525 1970 c-3 -5 -2 -10 4 -10 5 0 13 5 16 10 3 6 2 10 -4 10 -5 0
-13 -4 -16 -10z"/>
<path d="M2648 1968 c5 -5 16 -8 23 -6 8 3 3 7 -10 11 -17 4 -21 3 -13 -5z"/>
<path d="M530 1954 c0 -8 5 -12 10 -9 6 4 8 11 5 16 -9 14 -15 11 -15 -7z"/>
<path d="M675 1960 c-3 -5 -1 -10 4 -10 6 0 11 5 11 10 0 6 -2 10 -4 10 -3 0
-8 -4 -11 -10z"/>
<path d="M716 1944 c-22 -22 -20 -31 2 -11 10 10 22 14 27 10 4 -5 5 -2 1 5
-9 15 -11 15 -30 -4z"/>
<path d="M2570 1948 c0 -16 -65 -48 -98 -48 -16 -1 -16 -1 1 -14 17 -14 25
-42 7 -31 -5 3 -17 -6 -26 -20 -9 -14 -25 -25 -36 -25 -14 0 -18 -5 -14 -15 3
-8 1 -15 -4 -15 -19 0 -10 -16 10 -17 14 -1 20 4 20 18 0 11 4 17 10 14 5 -3
26 11 45 32 19 21 35 32 35 25 0 -7 5 -10 11 -7 6 5 4 12 -8 21 -16 12 -16 15
-3 24 22 14 40 12 34 -4 -3 -8 -1 -17 4 -20 10 -6 26 83 17 92 -3 3 -5 -2 -5
-10z"/>
<path d="M310 1931 c0 -28 -20 -37 -21 -9 -1 16 -3 18 -6 6 -2 -9 -11 -18 -20
-20 -14 -3 -14 -5 2 -18 11 -9 16 -10 11 -2 -12 19 9 14 29 -8 10 -11 26 -20
37 -20 22 0 23 -10 3 -36 -14 -19 -14 -18 -15 4 0 22 -20 32 -20 10 0 -10 -3
-9 -9 1 -5 8 -14 10 -22 5 -17 -10 -59 -12 -59 -1 0 4 -8 3 -18 -2 -9 -5 -50
-11 -89 -13 -40 -2 -75 -7 -79 -10 -6 -7 8 -11 181 -54 102 -25 113 -31 153
-71 23 -24 42 -39 42 -34 0 5 -5 13 -11 17 -8 5 -7 10 4 16 10 5 14 15 10 26
-3 9 -3 14 1 10 7 -5 13 -26 15 -50 1 -5 5 -8 11 -8 5 0 7 7 4 15 -4 8 -1 15
6 15 6 0 8 5 5 11 -4 6 2 13 14 16 12 3 21 9 21 14 0 5 8 4 19 -2 10 -7 16
-20 14 -29 -3 -11 3 -19 16 -23 24 -6 19 -37 -6 -37 -9 0 -13 6 -9 15 3 8 1
15 -4 15 -15 0 -12 -26 4 -39 11 -10 20 -10 36 -1 20 10 21 10 16 -8 -4 -12
-2 -24 5 -28 8 -4 9 -3 5 4 -5 8 0 12 13 12 30 0 23 34 -6 36 -29 2 -32 5 -27
18 3 7 -2 20 -10 28 -16 17 -8 76 9 70 5 -2 11 1 13 7 2 6 -5 11 -16 11 -15 0
-19 5 -15 20 3 11 0 20 -6 20 -6 0 -11 -8 -11 -19 0 -25 -52 -24 -56 2 -3 20
16 23 34 5 9 -9 12 -9 12 0 0 7 -5 12 -11 12 -5 0 -7 5 -4 10 4 7 -5 9 -27 6
-18 -3 -27 -3 -20 0 20 9 14 27 -8 21 -11 -3 -18 -1 -14 4 3 5 -1 9 -10 9 -8
0 -13 -7 -11 -17 1 -10 -2 -26 -7 -37 -8 -15 -12 -16 -18 -5 -5 7 -4 21 1 30
7 15 4 18 -19 21 -22 2 -27 8 -26 30 1 18 -3 25 -13 21 -9 -4 -11 0 -7 11 3 9
1 16 -5 16 -6 0 -11 -9 -11 -19z m20 -36 c-7 -9 -15 -13 -17 -11 -7 7 7 26 19
26 6 0 6 -6 -2 -15z m120 -80 c0 -8 -7 -15 -15 -15 -8 0 -15 7 -15 15 0 8 7
15 15 15 8 0 15 -7 15 -15z"/>
<path d="M2701 1938 c0 -10 -5 -18 -11 -18 -5 0 -10 -4 -10 -8 0 -10 41 -9 58
1 15 10 16 27 1 27 -5 0 -8 -4 -5 -9 3 -5 -1 -11 -8 -14 -10 -4 -16 2 -19 16
-3 15 -5 17 -6 5z"/>
<path d="M2783 1935 c-16 -18 -17 -38 -1 -33 12 4 31 48 20 48 -4 -1 -13 -7
-19 -15z"/>
<path d="M245 1930 c3 -5 8 -10 11 -10 2 0 4 5 4 10 0 6 -5 10 -11 10 -5 0 -7
-4 -4 -10z"/>
<path d="M840 1905 c0 -16 16 -20 24 -6 3 5 -1 11 -9 15 -9 3 -15 0 -15 -9z"/>
<path d="M446 1894 c-5 -12 -2 -15 10 -10 8 3 18 6 20 6 2 0 4 5 4 10 0 16
-27 11 -34 -6z"/>
<path d="M2369 1899 c-16 -10 -15 -10 24 -15 31 -3 34 1 9 15 -11 6 -24 6 -33
0z"/>
<path d="M494 1885 c-10 -8 -14 -15 -7 -15 6 0 14 4 18 10 3 5 13 6 22 3 11
-4 14 -3 9 5 -9 16 -18 15 -42 -3z"/>
<path d="M216 1882 c-7 -12 22 -38 31 -28 4 3 0 14 -9 22 -9 10 -18 12 -22 6z"/>
<path d="M675 1880 c-3 -5 -1 -10 4 -10 6 0 11 5 11 10 0 6 -2 10 -4 10 -3 0
-8 -4 -11 -10z"/>
<path d="M2435 1870 c-4 -12 -5 -24 -2 -27 3 -2 8 5 12 17 4 12 5 24 2 27 -3
2 -8 -5 -12 -17z"/>
<path d="M2629 1868 l-12 -23 24 20 c13 11 26 21 28 22 2 2 -3 3 -12 3 -9 0
-22 -10 -28 -22z"/>
<path d="M2750 1887 c0 -2 11 -13 25 -25 19 -17 25 -18 25 -7 0 8 -7 15 -16
15 -8 0 -12 5 -9 10 3 6 -1 10 -9 10 -9 0 -16 -1 -16 -3z"/>
<path d="M637 1856 c-4 -9 -1 -16 6 -16 7 0 4 -5 -6 -11 -13 -8 -22 -7 -32 1
-26 21 -28 -10 -2 -36 l25 -25 17 35 c11 24 14 40 7 51 -8 16 -10 16 -15 1z
m-10 -68 c-3 -8 -6 -5 -6 6 -1 11 2 17 5 13 3 -3 4 -12 1 -19z"/>
<path d="M2560 1845 c-1 -5 -2 -13 -2 -16 1 -4 -8 -9 -18 -12 -11 -3 -20 0
-20 6 0 6 -3 8 -6 4 -8 -8 5 -47 17 -47 5 0 9 5 9 11 0 7 7 17 16 24 9 6 14
18 11 26 -3 8 -6 10 -7 4z"/>
<path d="M2595 1830 c-4 -12 -5 -24 -2 -27 3 -2 8 5 12 17 4 12 5 24 2 27 -3
2 -8 -5 -12 -17z"/>
<path d="M791 1808 c0 -10 -7 -18 -15 -18 -23 0 -26 -26 -4 -27 30 -3 33 -11
13 -33 -18 -19 -17 -20 3 -20 12 0 21 3 21 8 -4 24 3 42 17 42 8 0 12 -4 9
-10 -3 -5 -1 -10 4 -10 6 0 11 5 11 10 0 6 7 10 16 10 11 0 14 5 10 16 -3 9
-6 18 -6 20 0 2 -4 4 -10 4 -5 0 -9 -5 -7 -11 1 -6 -4 -14 -12 -17 -8 -3 -11
0 -7 7 4 7 0 11 -13 11 -11 0 -22 8 -24 18 -4 16 -5 16 -6 0z m14 -28 c3 -5 1
-10 -4 -10 -6 0 -11 5 -11 10 0 6 2 10 4 10 3 0 8 -4 11 -10z"/>
<path d="M658 1803 c7 -3 16 -2 19 1 4 3 -2 6 -13 5 -11 0 -14 -3 -6 -6z"/>
<path d="M2766 1785 c-30 -28 -32 -35 -11 -35 8 0 15 4 15 8 0 5 11 15 25 22
13 7 22 17 19 22 -8 13 -19 10 -48 -17z"/>
<path d="M2462 1779 c-7 -11 -10 -24 -7 -29 3 -6 -1 -7 -9 -4 -18 7 -20 -4 -6
-26 7 -11 10 -12 10 -2 0 8 6 12 13 9 6 -2 11 -13 9 -23 -2 -15 -1 -16 7 -5 6
9 6 21 0 32 -7 14 -5 16 14 11 21 -5 21 -4 5 14 -9 10 -17 23 -16 27 0 17 -8
16 -20 -4z"/>
<path d="M2660 1779 c0 -5 5 -7 10 -4 6 3 10 8 10 11 0 2 -4 4 -10 4 -5 0 -10
-5 -10 -11z"/>
<path d="M2530 1755 c0 -8 4 -15 8 -15 5 0 9 7 9 15 0 8 -4 15 -9 15 -4 0 -8
-7 -8 -15z"/>
<path d="M2577 1739 c-4 -16 -3 -18 9 -8 7 6 11 15 8 20 -8 13 -11 11 -17 -12z"/>
<path d="M576 1741 c-4 -7 -5 -15 -2 -18 9 -9 19 4 14 18 -4 11 -6 11 -12 0z"/>
<path d="M960 1740 c0 -5 5 -10 10 -10 6 0 10 5 10 10 0 6 -4 10 -10 10 -5 0
-10 -4 -10 -10z"/>
<path d="M2670 1739 c0 -5 5 -7 10 -4 6 3 10 8 10 11 0 2 -4 4 -10 4 -5 0 -10
-5 -10 -11z"/>
<path d="M2400 1730 c0 -5 5 -10 10 -10 6 0 10 5 10 10 0 6 -4 10 -10 10 -5 0
-10 -4 -10 -10z"/>
<path d="M465 1710 c3 -5 8 -10 11 -10 2 0 4 5 4 10 0 6 -5 10 -11 10 -5 0 -7
-4 -4 -10z"/>
<path d="M717 1712 c-6 -11 32 -42 38 -32 4 6 0 10 -7 10 -11 0 -10 2 0 9 10
6 9 10 -7 14 -12 3 -23 2 -24 -1z"/>
<path d="M825 1709 c-4 -6 -5 -12 -2 -15 2 -3 7 2 10 11 7 17 1 20 -8 4z"/>
<path d="M2391 1684 c0 -11 3 -14 6 -6 3 7 2 16 -1 19 -3 4 -6 -2 -5 -13z"/>
<path d="M2425 1689 c-11 -4 -15 -8 -10 -9 6 0 1 -7 -9 -15 -11 -8 -14 -15 -8
-15 7 0 12 -12 12 -27 l0 -26 -25 23 -25 23 0 -25 c0 -15 -5 -28 -11 -30 -6
-2 -8 -14 -4 -31 5 -20 11 -25 20 -17 6 5 15 7 18 3 4 -3 7 -1 7 5 0 7 -4 12
-9 12 -5 0 -8 8 -6 18 2 9 4 21 4 26 1 5 7 3 15 -3 17 -14 41 11 32 34 -4 11
2 15 22 16 17 1 20 3 10 6 -21 5 -24 19 -6 25 7 3 8 7 3 10 -6 3 -19 2 -30 -3z"/>
<path d="M2227 1654 c-10 -19 -12 -32 -7 -29 12 7 33 55 27 61 -2 2 -11 -12
-20 -32z"/>
<path d="M2700 1680 c0 -5 -5 -10 -11 -10 -17 0 -40 -28 -29 -35 13 -8 32 4
25 16 -9 13 19 11 33 -3 6 -6 15 -8 19 -3 5 4 2 10 -4 12 -7 3 -13 11 -13 19
0 8 -4 14 -10 14 -5 0 -10 -4 -10 -10z"/>
<path d="M765 1667 c-34 -40 -55 -78 -49 -89 5 -8 10 -6 15 8 6 16 8 15 8 -8
1 -20 5 -26 16 -22 8 4 15 2 15 -4 0 -5 -7 -13 -16 -16 -17 -6 -10 -26 9 -25
8 0 8 2 -1 6 -10 4 -9 8 3 17 14 10 14 16 4 41 -15 37 -12 55 12 76 10 9 16
19 12 23 -9 9 -16 7 -28 -7z"/>
<path d="M810 1668 c0 -9 -5 -18 -12 -20 -16 -6 22 -68 42 -68 10 0 11 3 4 8
-6 4 -12 14 -12 22 -4 39 -9 60 -15 66 -4 4 -7 0 -7 -8z"/>
<path d="M2618 1673 c7 -3 16 -2 19 1 4 3 -2 6 -13 5 -11 0 -14 -3 -6 -6z"/>
<path d="M910 1660 c12 -8 13 -13 3 -30 -7 -11 -13 -25 -13 -31 0 -16 21 3 42
38 l17 29 -32 2 c-24 2 -28 0 -17 -8z"/>
<path d="M2496 1653 c12 -9 20 -10 22 -3 2 5 8 8 13 4 5 -3 9 -1 9 4 0 5 -14
9 -31 9 -29 0 -30 -1 -13 -14z"/>
<path d="M646 1631 c-4 -7 -5 -15 -2 -18 9 -9 19 4 14 18 -4 11 -6 11 -12 0z"/>
<path d="M770 1611 c0 -21 39 -74 40 -53 0 6 -5 12 -11 12 -8 0 -8 4 -2 13 7
8 4 18 -9 30 -17 16 -18 16 -18 -2z"/>
<path d="M543 1605 c-13 -14 -7 -25 14 -25 14 0 18 26 6 33 -5 3 -13 -1 -20
-8z"/>
<path d="M2190 1591 c-12 -24 -13 -34 -1 -27 9 6 22 46 15 46 -2 0 -8 -9 -14
-19z"/>
<path d="M920 1570 c0 -19 3 -21 12 -12 9 9 9 15 0 24 -9 9 -12 7 -12 -12z"/>
<path d="M968 1583 c-21 -5 -24 -23 -4 -23 8 0 16 7 20 15 3 8 4 14 3 14 -1
-1 -10 -3 -19 -6z"/>
<path d="M886 1555 c-9 -26 -7 -32 5 -12 6 10 9 21 6 23 -2 3 -7 -2 -11 -11z"/>
<path d="M1008 1563 c-21 -5 -23 -19 -4 -26 14 -5 36 10 36 25 0 8 -4 9 -32 1z"/>
<path d="M1057 1563 c-10 -9 -9 -23 1 -23 5 0 9 7 9 15 0 17 -1 18 -10 8z"/>
<path d="M2665 1560 c-3 -5 -1 -10 4 -10 6 0 11 5 11 10 0 6 -2 10 -4 10 -3 0
-8 -4 -11 -10z"/>
<path d="M2142 1525 c-29 -33 -28 -44 1 -17 13 12 27 19 30 15 4 -3 7 1 7 10
0 24 -13 21 -38 -8z"/>
<path d="M940 1529 c0 -5 5 -7 10 -4 6 3 10 8 10 11 0 2 -4 4 -10 4 -5 0 -10
-5 -10 -11z"/>
<path d="M1033 1516 c0 -8 6 -12 13 -9 9 3 11 -2 7 -18 -4 -15 -3 -20 5 -15
18 11 11 56 -9 56 -8 0 -16 -6 -16 -14z"/>
<path d="M900 1505 c-7 -8 -16 -12 -21 -9 -5 3 -6 -2 -3 -10 4 -12 0 -16 -17
-17 -18 -1 -20 -2 -6 -6 10 -3 24 1 32 7 8 6 20 8 26 4 8 -4 9 -3 5 5 -4 6 -2
18 4 26 7 9 8 15 2 15 -5 0 -15 -7 -22 -15z"/>
<path d="M2324 1504 c3 -9 7 -28 7 -42 1 -20 3 -22 6 -8 3 11 11 26 19 34 18
17 9 32 -18 32 -14 0 -18 -5 -14 -16z"/>
<path d="M1004 1502 c3 -6 -4 -21 -16 -33 -16 -15 -18 -20 -6 -16 9 3 26 -2
37 -12 20 -17 20 -17 0 -35 -23 -19 -39 -13 -39 15 0 10 -5 19 -11 19 -6 0 -8
-7 -5 -16 3 -8 2 -12 -4 -9 -6 3 -10 -2 -10 -12 0 -14 -2 -15 -9 -4 -5 8 -11
9 -15 3 -8 -13 25 -25 37 -13 6 6 16 5 28 -2 14 -9 22 -7 37 7 29 25 34 53 11
59 -11 3 -19 14 -19 25 0 12 -5 24 -12 28 -6 4 -8 3 -4 -4z"/>
<path d="M2284 1487 c-25 -30 -28 -48 -12 -58 21 -14 30 -10 23 11 -3 10 -1
29 5 40 16 31 7 34 -16 7z"/>
<path d="M740 1491 c0 -6 5 -13 10 -16 6 -3 10 1 10 9 0 9 -4 16 -10 16 -5 0
-10 -4 -10 -9z"/>
<path d="M2390 1490 c-8 -5 -10 -10 -5 -10 6 0 17 5 25 10 8 5 11 10 5 10 -5
0 -17 -5 -25 -10z"/>
<path d="M2460 1489 c0 -5 5 -7 10 -4 6 3 10 8 10 11 0 2 -4 4 -10 4 -5 0 -10
-5 -10 -11z"/>
<path d="M1089 1489 c-1 -2 -2 -16 -3 -30 -1 -19 3 -25 16 -24 29 2 31 12 9
36 -12 13 -22 21 -22 18z"/>
<path d="M2362 1445 c-7 -14 -8 -27 -2 -30 5 -3 12 6 16 20 9 35 0 41 -14 10z"/>
<path d="M2390 1462 c0 -5 7 -9 15 -9 8 0 15 4 15 9 0 4 -7 8 -15 8 -8 0 -15
-4 -15 -8z"/>
<path d="M884 1438 c-3 -4 -1 -8 5 -8 5 0 16 -3 25 -6 10 -4 16 -1 16 8 0 14
-38 19 -46 6z"/>
<path d="M800 1421 c0 -25 6 -27 13 -6 4 8 2 17 -3 20 -6 4 -10 -3 -10 -14z"/>
<path d="M2310 1430 c0 -5 5 -10 11 -10 5 0 7 5 4 10 -3 6 -8 10 -11 10 -2 0
-4 -4 -4 -10z"/>
<path d="M2242 1410 c10 -16 10 -24 0 -40 -17 -27 -15 -37 8 -43 18 -5 20 0
20 37 0 39 -13 66 -32 66 -5 0 -3 -9 4 -20z"/>
<path d="M1114 1409 c-3 -5 -14 -7 -24 -4 -14 4 -16 1 -13 -18 6 -28 29 -30
55 -4 10 9 18 19 18 21 0 10 -30 14 -36 5z"/>
<path d="M1160 1400 c0 -5 5 -10 10 -10 6 0 10 5 10 10 0 6 -4 10 -10 10 -5 0
-10 -4 -10 -10z"/>
<path d="M2318 1403 c7 -3 16 -2 19 1 4 3 -2 6 -13 5 -11 0 -14 -3 -6 -6z"/>
<path d="M760 1390 c-12 -8 -11 -10 5 -10 16 0 17 -2 5 -10 -8 -5 -11 -12 -7
-16 12 -13 30 13 20 30 -6 10 -13 12 -23 6z"/>
<path d="M2212 1393 c-6 -2 -9 -9 -6 -15 3 -5 -4 -20 -15 -32 -25 -26 -19 -56
11 -56 17 0 18 2 4 15 -14 14 -13 18 4 35 11 11 20 29 20 40 0 11 -1 20 -2 19
-2 0 -9 -3 -16 -6z"/>
<path d="M2315 1380 c3 -5 8 -10 11 -10 2 0 4 5 4 10 0 6 -5 10 -11 10 -5 0
-7 -4 -4 -10z"/>
<path d="M838 1361 c-16 -9 -28 -24 -28 -33 0 -27 -1 -31 -11 -50 -7 -12 -6
-18 1 -18 6 0 8 -5 5 -10 -9 -15 24 -25 37 -12 9 9 7 17 -6 31 -19 21 -19 76
1 76 6 0 14 3 18 7 4 4 13 4 21 1 8 -3 14 0 14 7 0 6 -4 9 -9 6 -5 -4 -11 -2
-13 2 -1 5 -15 1 -30 -7z"/>
<path d="M2513 1356 c-13 -6 -25 -17 -28 -24 -4 -10 28 7 64 35 9 7 -15 0 -36
-11z"/>
<path d="M966 1344 c-9 -23 -8 -24 14 -24 11 0 20 5 20 11 0 5 -4 7 -10 4 -6
-3 -7 1 -4 9 3 9 2 16 -4 16 -5 0 -13 -7 -16 -16z"/>
<path d="M1031 1348 c-1 -10 -5 -18 -11 -18 -5 0 -10 -5 -10 -12 0 -8 6 -7 16
4 9 9 14 22 11 30 -4 9 -6 7 -6 -4z"/>
<path d="M893 1342 c-8 -5 -8 -12 3 -26 12 -17 14 -18 14 -3 0 9 5 17 11 17 5
0 7 5 4 10 -7 12 -16 12 -32 2z"/>
<path d="M1050 1333 c0 -7 4 -13 9 -13 5 0 11 6 14 13 3 8 -1 14 -9 14 -8 0
-14 -6 -14 -14z"/>
<path d="M1150 1336 c0 -9 9 -14 20 -13 24 2 26 13 4 21 -22 8 -24 8 -24 -8z"/>
<path d="M591 1317 c-13 -21 -12 -21 5 -5 10 10 16 20 13 22 -3 3 -11 -5 -18
-17z"/>
<path d="M1108 1322 c-15 -16 -14 -17 12 -19 23 -2 27 1 23 17 -6 24 -13 24
-35 2z"/>
<path d="M861 1314 c0 -11 3 -14 6 -6 3 7 2 16 -1 19 -3 4 -6 -2 -5 -13z"/>
<path d="M2080 1310 c-11 -7 -12 -15 -1 -47 7 -21 12 -43 11 -48 -1 -6 -2 -19
-1 -30 1 -18 2 -18 17 -3 15 14 15 19 -2 53 -14 29 -15 41 -6 56 13 21 3 32
-18 19z"/>
<path d="M2130 1306 c0 -25 12 -46 26 -46 8 0 11 -7 7 -17 -4 -13 -1 -12 11 4
15 20 15 23 -8 47 -26 29 -36 32 -36 12z"/>
<path d="M2233 1305 c0 -8 4 -15 9 -15 4 0 8 4 8 9 0 6 -4 12 -8 15 -5 3 -9
-1 -9 -9z"/>
<path d="M946 1295 c-3 -8 -1 -15 4 -15 13 0 22 18 11 24 -5 3 -11 -1 -15 -9z"/>
<path d="M2450 1300 c0 -5 7 -7 15 -4 8 4 15 8 15 10 0 2 -7 4 -15 4 -8 0 -15
-4 -15 -10z"/>
<path d="M2540 1298 c0 -6 7 -8 15 -4 11 4 15 -1 15 -19 0 -16 6 -25 15 -25
17 0 20 16 5 25 -6 4 -8 11 -5 16 4 5 3 9 -2 10 -4 0 -16 2 -25 4 -10 2 -18
-1 -18 -7z"/>
<path d="M1886 1282 c-4 -13 -5 -26 -2 -29 10 -11 18 4 14 29 l-4 23 -8 -23z"/>
<path d="M2308 1293 c7 -3 16 -2 19 1 4 3 -2 6 -13 5 -11 0 -14 -3 -6 -6z"/>
<path d="M2420 1291 c0 -6 4 -13 10 -16 6 -3 7 1 4 9 -7 18 -14 21 -14 7z"/>
<path d="M570 1267 c0 -20 5 -27 19 -27 23 0 45 25 38 42 -4 8 -6 7 -6 -4 -1
-22 -9 -23 -33 -1 -17 15 -18 15 -18 -10z"/>
<path d="M865 1280 c-3 -5 -3 -21 1 -35 4 -16 2 -25 -6 -25 -7 0 -10 -6 -7
-14 3 -8 1 -17 -6 -19 -9 -3 -9 -7 0 -17 17 -18 34 -3 29 26 -3 15 1 27 11 32
14 8 13 10 -1 15 -20 8 -21 27 0 27 8 0 12 5 9 10 -8 13 -22 13 -30 0z"/>
<path d="M1115 1270 c-3 -5 1 -10 10 -10 9 0 13 5 10 10 -3 6 -8 10 -10 10 -2
0 -7 -4 -10 -10z"/>
<path d="M1169 1267 c6 -8 9 -17 6 -21 -3 -3 0 -2 6 3 12 10 4 31 -13 31 -7 0
-7 -4 1 -13z"/>
<path d="M2275 1270 c-3 -6 1 -7 9 -4 18 7 21 14 7 14 -6 0 -13 -4 -16 -10z"/>
<path d="M991 1254 c0 -11 3 -14 6 -6 3 7 2 16 -1 19 -3 4 -6 -2 -5 -13z"/>
<path d="M1840 1259 c0 -5 5 -7 10 -4 6 3 10 8 10 11 0 2 -4 4 -10 4 -5 0 -10
-5 -10 -11z"/>
<path d="M1201 1244 c0 -11 3 -14 6 -6 3 7 2 16 -1 19 -3 4 -6 -2 -5 -13z"/>
<path d="M2006 1244 c-17 -17 -22 -59 -6 -49 6 3 10 15 10 26 0 20 15 26 25 9
4 -6 1 -17 -5 -25 -10 -12 -9 -15 3 -15 8 0 20 7 27 15 10 13 10 19 -5 35 -22
24 -29 25 -49 4z"/>
<path d="M1071 1234 c0 -11 3 -14 6 -6 3 7 2 16 -1 19 -3 4 -6 -2 -5 -13z"/>
<path d="M1095 1240 c-3 -5 1 -10 10 -10 9 0 13 5 10 10 -3 6 -8 10 -10 10 -2
0 -7 -4 -10 -10z"/>
<path d="M1136 1235 c-3 -8 -14 -15 -24 -15 -11 0 -25 -7 -32 -15 -8 -9 -8
-15 -2 -15 6 0 13 6 16 13 3 6 4 -1 0 -17 -5 -26 -3 -28 10 -17 9 8 16 18 16
23 0 5 6 16 14 23 12 12 15 12 18 -3 3 -9 4 -21 4 -26 -2 -14 44 -27 61 -18
19 11 18 18 -3 39 -13 13 -20 14 -35 5 -16 -10 -19 -9 -19 7 0 25 -16 36 -24
16z m64 -45 c0 -5 -2 -10 -4 -10 -3 0 -8 5 -11 10 -3 6 -1 10 4 10 6 0 11 -4
11 -10z"/>
<path d="M1360 1243 c0 -7 -9 -15 -20 -18 -25 -8 -27 -27 -2 -24 29 2 30 0 22
-35 -6 -30 -5 -33 11 -29 30 8 68 59 62 83 -6 23 -14 25 -31 8 -15 -15 -16
-32 -2 -23 6 3 10 -1 10 -9 0 -9 -4 -16 -10 -16 -5 0 -10 -7 -10 -15 0 -8 -5
-15 -11 -15 -7 0 -8 7 -4 18 10 23 7 64 -5 76 -7 7 -10 6 -10 -1z"/>
<path d="M1830 1229 c0 -5 5 -7 10 -4 6 3 10 8 10 11 0 2 -4 4 -10 4 -5 0 -10
-5 -10 -11z"/>
<path d="M1950 1230 c0 -5 7 -10 15 -10 8 0 15 5 15 10 0 6 -7 10 -15 10 -8 0
-15 -4 -15 -10z"/>
<path d="M2130 1224 c0 -8 5 -12 10 -9 6 4 8 11 5 16 -9 14 -15 11 -15 -7z"/>
<path d="M511 1214 c0 -11 3 -14 6 -6 3 7 2 16 -1 19 -3 4 -6 -2 -5 -13z"/>
<path d="M1449 1223 c-1 -5 -1 -15 0 -24 1 -9 -9 -27 -23 -40 -19 -18 -22 -28
-15 -41 12 -23 49 -24 49 -2 0 14 -3 14 -15 4 -13 -10 -15 -9 -15 8 0 24 15
37 25 22 10 -16 25 -12 19 5 -4 8 -1 15 5 15 6 0 11 5 11 10 0 6 -7 10 -16 10
-11 0 -14 6 -9 20 4 11 2 20 -4 20 -6 0 -12 -3 -12 -7z"/>
<path d="M807 1214 c-8 -8 1 -24 14 -24 5 0 9 7 9 15 0 15 -12 20 -23 9z"/>
<path d="M1854 1193 c-4 -13 -1 -30 5 -36 8 -8 11 -4 11 16 0 19 4 25 15 21 8
-4 15 -2 15 4 0 5 -9 12 -20 15 -15 4 -22 -1 -26 -20z"/>
<path d="M1240 1206 c0 -3 9 -10 20 -16 11 -6 20 -8 20 -6 0 3 -9 10 -20 16
-11 6 -20 8 -20 6z"/>
<path d="M2295 1200 c-3 -5 -2 -10 4 -10 5 0 13 5 16 10 3 6 2 10 -4 10 -5 0
-13 -4 -16 -10z"/>
<path d="M2370 1199 c0 -5 5 -7 10 -4 6 3 10 8 10 11 0 2 -4 4 -10 4 -5 0 -10
-5 -10 -11z"/>
<path d="M1708 1182 c-24 -27 -30 -52 -13 -52 8 0 15 7 15 15 0 8 5 15 11 15
5 0 8 4 5 9 -4 5 -1 11 6 13 8 3 9 6 1 11 -6 4 -17 -1 -25 -11z"/>
<path d="M1812 1180 c-10 -17 -10 -20 3 -20 8 0 15 9 15 20 0 11 -1 20 -3 20
-1 0 -8 -9 -15 -20z"/>
<path d="M1915 1189 c-4 -6 -5 -12 -2 -15 2 -3 7 2 10 11 7 17 1 20 -8 4z"/>
<path d="M1954 1184 c3 -8 2 -12 -4 -9 -6 3 -10 0 -10 -9 0 -8 8 -13 18 -12 9
2 17 8 16 14 -2 27 -5 32 -15 32 -6 0 -8 -7 -5 -16z"/>
<path d="M1061 1168 c-1 -9 -7 -18 -13 -21 -7 -2 -11 -7 -8 -9 3 -3 12 -3 21
1 12 4 14 12 8 26 -6 16 -8 16 -8 3z"/>
<path d="M1247 1168 c-2 -7 -4 -16 -3 -20 2 -10 -37 -37 -46 -32 -5 3 -8 0 -8
-5 0 -15 27 -14 33 2 3 9 7 9 20 -2 15 -12 16 -10 10 19 -4 24 -3 31 6 26 6
-4 9 -12 6 -17 -10 -15 21 -10 34 5 7 8 22 12 34 10 12 -2 16 -2 9 2 -6 3 -10
10 -6 15 9 15 -13 10 -30 -7 -15 -14 -17 -14 -32 0 -19 19 -21 19 -27 4z"/>
<path d="M1500 1171 c0 -5 9 -11 19 -14 14 -3 18 -1 14 9 -6 15 -33 19 -33 5z"/>
<path d="M1614 1156 c23 -18 36 -20 36 -6 0 6 -4 10 -9 10 -5 0 -18 3 -28 6
-16 5 -16 4 1 -10z"/>
<path d="M2020 1155 c0 -9 5 -15 11 -13 6 2 11 8 11 13 0 5 -5 11 -11 13 -6 2
-11 -4 -11 -13z"/>
<path d="M1116 1138 c-17 -16 -18 -18 -3 -18 9 0 17 5 17 10 0 6 5 9 11 8 6
-2 13 2 16 8 6 17 -20 12 -41 -8z"/>
<path d="M2110 1150 c0 -5 5 -10 10 -10 6 0 10 5 10 10 0 6 -4 10 -10 10 -5 0
-10 -4 -10 -10z"/>
<path d="M1790 1140 c0 -5 5 -10 11 -10 5 0 7 5 4 10 -3 6 -8 10 -11 10 -2 0
-4 -4 -4 -10z"/>
<path d="M555 1129 c-4 -6 1 -18 12 -28 15 -15 21 -15 31 -5 19 20 14 27 -14
20 -21 -6 -25 -4 -21 8 7 18 1 21 -8 5z"/>
<path d="M1995 1130 c-3 -5 1 -10 10 -10 9 0 13 5 10 10 -3 6 -8 10 -10 10 -2
0 -7 -4 -10 -10z"/>
<path d="M1475 1120 c3 -5 13 -10 21 -10 8 0 14 5 14 10 0 6 -9 10 -21 10 -11
0 -17 -4 -14 -10z"/>
<path d="M1930 1120 c0 -5 5 -10 11 -10 5 0 7 5 4 10 -3 6 -8 10 -11 10 -2 0
-4 -4 -4 -10z"/>
<path d="M2255 1120 c-3 -5 1 -10 9 -10 8 0 18 5 21 10 3 6 -1 10 -9 10 -8 0
-18 -4 -21 -10z"/>
<path d="M1300 1110 c0 -6 -4 -9 -9 -6 -5 4 -7 -3 -4 -15 3 -11 9 -16 12 -11
3 5 15 12 26 14 19 4 19 4 -2 16 -16 9 -23 9 -23 2z"/>
<path d="M2026 1105 c-3 -8 -1 -15 4 -15 6 0 10 7 10 15 0 8 -2 15 -4 15 -2 0
-6 -7 -10 -15z"/>
<path d="M2195 1110 c3 -5 8 -10 11 -10 2 0 4 5 4 10 0 6 -5 10 -11 10 -5 0
-7 -4 -4 -10z"/>
<path d="M1386 1095 c-3 -9 0 -15 9 -15 8 0 15 7 15 15 0 8 -4 15 -9 15 -5 0
-11 -7 -15 -15z"/>
<path d="M1600 1101 c0 -5 8 -12 18 -16 15 -6 14 -8 -8 -18 -21 -8 -22 -11 -7
-14 19 -5 22 -18 7 -28 -5 -3 -10 -16 -9 -28 1 -21 1 -21 8 -2 12 37 34 75 42
75 5 0 6 7 2 15 -3 9 -8 14 -11 11 -2 -3 -13 -1 -23 5 -11 6 -19 6 -19 0z"/>
<path d="M1755 1100 c-11 -5 -15 -9 -10 -10 6 -1 18 -3 28 -5 9 -2 17 3 17 11
0 16 -6 16 -35 4z"/>
<path d="M1859 1097 c6 -8 8 -17 4 -20 -3 -4 -1 -7 5 -7 6 0 10 9 9 20 -1 11
-8 20 -15 20 -11 0 -12 -3 -3 -13z"/>
<path d="M1465 1089 c-4 -6 -5 -12 -2 -15 2 -3 7 2 10 11 7 17 1 20 -8 4z"/>
<path d="M1509 1079 c-19 -17 -21 -22 -9 -29 16 -10 40 12 40 37 0 17 -3 17
-31 -8z"/>
<path d="M1896 1084 c-9 -24 -7 -27 9 -10 17 17 19 26 6 26 -5 0 -12 -7 -15
-16z"/>
<path d="M2376 1079 c-17 -17 -18 -19 -3 -19 9 0 17 -4 17 -10 0 -5 4 -10 8
-10 5 0 9 14 10 30 1 35 -5 36 -32 9z"/>
<path d="M530 1079 c0 -5 5 -7 10 -4 6 3 10 8 10 11 0 2 -4 4 -10 4 -5 0 -10
-5 -10 -11z"/>
<path d="M1796 1073 c-6 -14 -5 -15 5 -6 7 7 10 15 7 18 -3 3 -9 -2 -12 -12z"/>
<path d="M495 1070 c-3 -5 5 -15 19 -21 14 -7 23 -15 20 -20 -2 -4 4 -7 15 -6
15 1 17 4 7 19 -6 10 -17 16 -23 13 -7 -2 -13 2 -13 10 0 17 -16 20 -25 5z"/>
<path d="M653 1073 c-19 -7 -15 -23 5 -23 10 0 19 7 19 15 0 16 -4 17 -24 8z"/>
<path d="M1250 1069 c0 -5 5 -7 10 -4 6 3 10 8 10 11 0 2 -4 4 -10 4 -5 0 -10
-5 -10 -11z"/>
<path d="M1415 1071 c-3 -5 -1 -12 5 -16 5 -3 10 1 10 9 0 18 -6 21 -15 7z"/>
<path d="M560 1050 c0 -5 7 -7 15 -4 8 4 15 8 15 10 0 2 -7 4 -15 4 -8 0 -15
-4 -15 -10z"/>
<path d="M1682 1035 c-17 -37 -14 -45 4 -12 9 16 14 31 11 33 -2 2 -9 -7 -15
-21z"/>
<path d="M1867 1040 c-3 -11 -1 -23 4 -26 5 -3 9 6 9 20 0 31 -6 34 -13 6z"/>
<path d="M1930 1044 c0 -8 5 -12 10 -9 6 4 8 11 5 16 -9 14 -15 11 -15 -7z"/>
<path d="M1276 1034 c-15 -14 -21 -34 -12 -34 15 0 35 14 30 21 -3 5 0 9 5 9
6 0 11 5 11 10 0 15 -16 12 -34 -6z"/>
<path d="M1804 1035 c-4 -8 -12 -15 -20 -15 -8 0 -14 -4 -14 -10 0 -17 15 -11
38 15 12 14 17 25 12 25 -6 0 -13 -7 -16 -15z"/>
<path d="M658 1033 c7 -3 16 -2 19 1 4 3 -2 6 -13 5 -11 0 -14 -3 -6 -6z"/>
<path d="M1465 1030 c-3 -5 -1 -10 4 -10 6 0 11 5 11 10 0 6 -2 10 -4 10 -3 0
-8 -4 -11 -10z"/>
<path d="M1726 1024 c-17 -12 -17 -14 -4 -14 9 0 20 5 23 11 11 17 2 18 -19 3z"/>
<path d="M2225 1009 c-9 -41 0 -48 13 -10 6 17 7 33 2 36 -5 3 -11 -9 -15 -26z"/>
<path d="M580 1020 c0 -5 5 -10 10 -10 6 0 10 5 10 10 0 6 -4 10 -10 10 -5 0
-10 -4 -10 -10z"/>
<path d="M760 1015 c0 -8 0 -18 1 -21 0 -4 -5 -11 -13 -15 -10 -7 -9 -9 5 -9
9 0 17 6 18 13 0 6 2 20 4 30 2 9 -1 17 -6 17 -5 0 -9 -7 -9 -15z"/>
<path d="M1165 1020 c-3 -5 3 -10 14 -10 12 0 21 5 21 10 0 6 -6 10 -14 10 -8
0 -18 -4 -21 -10z"/>
<path d="M1398 1023 c7 -3 16 -2 19 1 4 3 -2 6 -13 5 -11 0 -14 -3 -6 -6z"/>
<path d="M617 1008 c-34 -12 -31 -31 5 -32 19 -1 24 2 20 16 -5 19 13 25 21 8
3 -6 4 -5 3 2 -3 16 -16 18 -49 6z"/>
<path d="M1230 1001 c0 -11 5 -23 10 -26 6 -4 10 5 10 19 0 14 -4 26 -10 26
-5 0 -10 -9 -10 -19z"/>
<path d="M1423 1003 c-7 -2 -13 -13 -13 -24 0 -12 5 -16 15 -13 8 4 15 1 15
-5 0 -6 -9 -11 -21 -11 -15 0 -20 -5 -17 -20 2 -12 8 -21 13 -22 15 -1 46 68
39 87 -6 16 -11 17 -31 8z"/>
<path d="M1559 1001 c11 -7 11 -9 0 -14 -10 -4 -9 -6 4 -6 9 -1 17 6 17 14 0
8 -8 15 -17 15 -14 0 -15 -2 -4 -9z"/>
<path d="M2144 996 c-9 -9 -8 -17 2 -31 13 -17 14 -16 14 13 0 36 -1 36 -16
18z"/>
<path d="M676 985 c-3 -8 -1 -15 3 -15 5 0 11 7 15 15 3 8 1 15 -3 15 -5 0
-11 -7 -15 -15z"/>
<path d="M1515 990 c3 -5 -1 -10 -9 -10 -9 0 -16 -4 -16 -9 0 -5 9 -7 20 -4
21 5 28 33 9 33 -5 0 -7 -4 -4 -10z"/>
<path d="M1624 989 c-11 -18 14 -35 29 -20 10 10 8 11 -7 5 -16 -6 -18 -4 -13
9 7 19 2 23 -9 6z"/>
<path d="M1790 991 c0 -6 5 -13 10 -16 6 -3 10 1 10 9 0 9 -4 16 -10 16 -5 0
-10 -4 -10 -9z"/>
<path d="M550 964 c0 -8 5 -12 10 -9 6 4 8 11 5 16 -9 14 -15 11 -15 -7z"/>
<path d="M1710 955 c-6 -15 -13 -31 -15 -36 -3 -4 -1 -10 4 -14 6 -3 15 11 20
32 12 44 6 57 -9 18z"/>
<path d="M1955 970 c-19 -8 -19 -9 2 -9 12 -1 25 4 28 9 7 12 -2 12 -30 0z"/>
<path d="M617 963 c-14 -14 -7 -43 11 -42 10 0 12 3 5 6 -7 2 -13 11 -13 19 0
9 5 12 12 8 7 -4 8 -3 4 4 -8 14 -10 14 -19 5z"/>
<path d="M1580 960 c-9 -6 -10 -10 -3 -10 6 0 15 5 18 10 8 12 4 12 -15 0z"/>
<path d="M653 945 c-3 -9 -3 -18 -1 -21 3 -3 8 4 11 16 6 23 -1 27 -10 5z"/>
<path d="M1905 950 c3 -5 8 -10 11 -10 2 0 4 5 4 10 0 6 -5 10 -11 10 -5 0 -7
-4 -4 -10z"/>
<path d="M2002 953 c-6 -2 -10 -9 -7 -13 7 -11 35 -2 35 11 0 10 -8 10 -28 2z"/>
<path d="M1521 941 c-8 -5 -9 -11 -3 -15 5 -3 12 1 16 9 6 17 6 18 -13 6z"/>
<path d="M1931 931 c-7 -5 -11 -15 -9 -22 3 -10 8 -7 17 9 13 24 12 26 -8 13z"/>
<path d="M671 917 c0 -10 -4 -16 -8 -14 -5 3 -15 -2 -22 -11 -13 -14 -12 -15
7 -10 15 4 22 2 22 -7 0 -8 5 -17 12 -21 7 -4 8 -3 4 4 -10 16 2 15 19 -2 10
-10 11 -16 2 -25 -8 -8 -8 -11 1 -11 6 0 16 8 21 18 8 14 4 22 -19 37 -16 11
-31 29 -33 40 -4 17 -4 17 -6 2z"/>
<path d="M1665 920 c-3 -5 -1 -10 4 -10 6 0 11 5 11 10 0 6 -2 10 -4 10 -3 0
-8 -4 -11 -10z"/>
<path d="M1767 923 c-4 -3 -7 -13 -7 -22 1 -13 3 -13 11 2 11 19 8 33 -4 20z"/>
<path d="M2130 915 c0 -16 16 -20 24 -6 3 5 -1 11 -9 15 -9 3 -15 0 -15 -9z"/>
<path d="M1471 911 c-12 -8 -12 -12 2 -26 25 -24 21 -38 -8 -31 -14 4 -25 2
-25 -4 0 -5 3 -10 8 -11 4 0 17 -2 28 -5 27 -5 54 23 31 32 -9 3 -18 12 -21
21 -4 11 -2 13 9 10 8 -4 17 -2 20 2 3 5 -2 12 -11 15 -19 7 -16 8 -33 -3z"/>
<path d="M1966 912 c-3 -4 4 -9 15 -9 23 -2 25 3 4 10 -8 4 -16 3 -19 -1z"/>
<path d="M1817 898 c11 -18 10 -32 -2 -41 -6 -5 -4 -7 5 -4 22 5 26 57 5 57
-10 0 -13 -4 -8 -12z"/>
<path d="M1685 842 c-6 -4 -11 -16 -13 -27 -3 -18 -2 -18 13 3 17 24 17 36 0
24z"/>
<path d="M1780 570 c0 -5 -9 -10 -19 -10 -10 0 -21 -6 -24 -13 -3 -8 4 -12 21
-11 18 0 26 7 29 22 1 12 1 22 -2 22 -3 0 -5 -4 -5 -10z"/>
<path d="M1530 520 c0 -5 5 -10 10 -10 6 0 10 5 10 10 0 6 -4 10 -10 10 -5 0
-10 -4 -10 -10z"/>
<path d="M1589 473 c-13 -16 -12 -17 3 -5 14 11 18 10 27 -5 9 -16 10 -16 11
5 0 26 -22 29 -41 5z"/>
<path d="M1474 462 c-18 -14 -18 -14 0 -8 12 4 25 -1 37 -15 11 -12 19 -17 19
-11 0 7 -8 20 -18 30 -17 17 -21 17 -38 4z"/>
<path d="M1450 419 c0 -5 5 -7 10 -4 6 3 10 8 10 11 0 2 -4 4 -10 4 -5 0 -10
-5 -10 -11z"/>
</g>
</svg>
